<?xml version="1.0" encoding="utf-8" standalone="no"?>
<!DOCTYPE svg PUBLIC "-//W3C//DTD SVG 1.1//EN"
  "http://www.w3.org/Graphics/SVG/1.1/DTD/svg11.dtd">
<svg xmlns:xlink="http://www.w3.org/1999/xlink" width="551.808pt" height="537.408pt" viewBox="0 0 551.808 537.408" xmlns="http://www.w3.org/2000/svg" version="1.1">
 <metadata>
  <rdf:RDF xmlns:dc="http://purl.org/dc/elements/1.1/" xmlns:cc="http://creativecommons.org/ns#" xmlns:rdf="http://www.w3.org/1999/02/22-rdf-syntax-ns#">
   <cc:Work>
    <dc:type rdf:resource="http://purl.org/dc/dcmitype/StillImage"/>
    <dc:date>2026-05-08T12:06:04.524854</dc:date>
    <dc:format>image/svg+xml</dc:format>
    <dc:creator>
     <cc:Agent>
      <dc:title>Matplotlib v3.10.1, https://matplotlib.org/</dc:title>
     </cc:Agent>
    </dc:creator>
   </cc:Work>
  </rdf:RDF>
 </metadata>
 <defs>
  <style type="text/css">*{stroke-linejoin: round; stroke-linecap: butt}</style>
 </defs>
 <g id="figure_1">
  <g id="patch_1">
   <path d="M 0 537.408 
L 551.808 537.408 
L 551.808 0 
L 0 0 
z
" style="fill: #ffffff"/>
  </g>
  <g id="axes_1">
   <g id="patch_2">
    <path d="M 68.976 478.29312 
L 496.6272 478.29312 
L 496.6272 64.48896 
L 68.976 64.48896 
z
" style="fill: #ffffff"/>
   </g>
   <g id="matplotlib.axis_1">
    <g id="xtick_1">
     <g id="line2d_1">
      <path d="M 88.414691 478.29312 
L 88.414691 64.48896 
" clip-path="url(#p387f6d79f2)" style="fill: none; stroke: #b0b0b0; stroke-width: 0.8; stroke-linecap: square"/>
     </g>
     <g id="line2d_2">
      <defs>
       <path id="m61d695c886" d="M 0 0 
L 0 3.5 
" style="stroke: #000000; stroke-width: 0.8"/>
      </defs>
      <g>
       <use xlink:href="#m61d695c886" x="88.414691" y="478.29312" style="stroke: #000000; stroke-width: 0.8"/>
      </g>
     </g>
     <g id="text_1">
      <!-- 0 -->
      <g transform="translate(85.233441 492.891558) scale(0.1 -0.1)">
       <defs>
        <path id="DejaVuSans-30" d="M 2034 4250 
Q 1547 4250 1301 3770 
Q 1056 3291 1056 2328 
Q 1056 1369 1301 889 
Q 1547 409 2034 409 
Q 2525 409 2770 889 
Q 3016 1369 3016 2328 
Q 3016 3291 2770 3770 
Q 2525 4250 2034 4250 
z
M 2034 4750 
Q 2819 4750 3233 4129 
Q 3647 3509 3647 2328 
Q 3647 1150 3233 529 
Q 2819 -91 2034 -91 
Q 1250 -91 836 529 
Q 422 1150 422 2328 
Q 422 3509 836 4129 
Q 1250 4750 2034 4750 
z
" transform="scale(0.015625)"/>
       </defs>
       <use xlink:href="#DejaVuSans-30"/>
      </g>
     </g>
    </g>
    <g id="xtick_2">
     <g id="line2d_3">
      <path d="M 157.004486 478.29312 
L 157.004486 64.48896 
" clip-path="url(#p387f6d79f2)" style="fill: none; stroke: #b0b0b0; stroke-width: 0.8; stroke-linecap: square"/>
     </g>
     <g id="line2d_4">
      <g>
       <use xlink:href="#m61d695c886" x="157.004486" y="478.29312" style="stroke: #000000; stroke-width: 0.8"/>
      </g>
     </g>
     <g id="text_2">
      <!-- 1000 -->
      <g transform="translate(144.279486 492.891558) scale(0.1 -0.1)">
       <defs>
        <path id="DejaVuSans-31" d="M 794 531 
L 1825 531 
L 1825 4091 
L 703 3866 
L 703 4441 
L 1819 4666 
L 2450 4666 
L 2450 531 
L 3481 531 
L 3481 0 
L 794 0 
L 794 531 
z
" transform="scale(0.015625)"/>
       </defs>
       <use xlink:href="#DejaVuSans-31"/>
       <use xlink:href="#DejaVuSans-30" transform="translate(63.623047 0)"/>
       <use xlink:href="#DejaVuSans-30" transform="translate(127.246094 0)"/>
       <use xlink:href="#DejaVuSans-30" transform="translate(190.869141 0)"/>
      </g>
     </g>
    </g>
    <g id="xtick_3">
     <g id="line2d_5">
      <path d="M 225.594281 478.29312 
L 225.594281 64.48896 
" clip-path="url(#p387f6d79f2)" style="fill: none; stroke: #b0b0b0; stroke-width: 0.8; stroke-linecap: square"/>
     </g>
     <g id="line2d_6">
      <g>
       <use xlink:href="#m61d695c886" x="225.594281" y="478.29312" style="stroke: #000000; stroke-width: 0.8"/>
      </g>
     </g>
     <g id="text_3">
      <!-- 2000 -->
      <g transform="translate(212.869281 492.891558) scale(0.1 -0.1)">
       <defs>
        <path id="DejaVuSans-32" d="M 1228 531 
L 3431 531 
L 3431 0 
L 469 0 
L 469 531 
Q 828 903 1448 1529 
Q 2069 2156 2228 2338 
Q 2531 2678 2651 2914 
Q 2772 3150 2772 3378 
Q 2772 3750 2511 3984 
Q 2250 4219 1831 4219 
Q 1534 4219 1204 4116 
Q 875 4013 500 3803 
L 500 4441 
Q 881 4594 1212 4672 
Q 1544 4750 1819 4750 
Q 2544 4750 2975 4387 
Q 3406 4025 3406 3419 
Q 3406 3131 3298 2873 
Q 3191 2616 2906 2266 
Q 2828 2175 2409 1742 
Q 1991 1309 1228 531 
z
" transform="scale(0.015625)"/>
       </defs>
       <use xlink:href="#DejaVuSans-32"/>
       <use xlink:href="#DejaVuSans-30" transform="translate(63.623047 0)"/>
       <use xlink:href="#DejaVuSans-30" transform="translate(127.246094 0)"/>
       <use xlink:href="#DejaVuSans-30" transform="translate(190.869141 0)"/>
      </g>
     </g>
    </g>
    <g id="xtick_4">
     <g id="line2d_7">
      <path d="M 294.184077 478.29312 
L 294.184077 64.48896 
" clip-path="url(#p387f6d79f2)" style="fill: none; stroke: #b0b0b0; stroke-width: 0.8; stroke-linecap: square"/>
     </g>
     <g id="line2d_8">
      <g>
       <use xlink:href="#m61d695c886" x="294.184077" y="478.29312" style="stroke: #000000; stroke-width: 0.8"/>
      </g>
     </g>
     <g id="text_4">
      <!-- 3000 -->
      <g transform="translate(281.459077 492.891558) scale(0.1 -0.1)">
       <defs>
        <path id="DejaVuSans-33" d="M 2597 2516 
Q 3050 2419 3304 2112 
Q 3559 1806 3559 1356 
Q 3559 666 3084 287 
Q 2609 -91 1734 -91 
Q 1441 -91 1130 -33 
Q 819 25 488 141 
L 488 750 
Q 750 597 1062 519 
Q 1375 441 1716 441 
Q 2309 441 2620 675 
Q 2931 909 2931 1356 
Q 2931 1769 2642 2001 
Q 2353 2234 1838 2234 
L 1294 2234 
L 1294 2753 
L 1863 2753 
Q 2328 2753 2575 2939 
Q 2822 3125 2822 3475 
Q 2822 3834 2567 4026 
Q 2313 4219 1838 4219 
Q 1578 4219 1281 4162 
Q 984 4106 628 3988 
L 628 4550 
Q 988 4650 1302 4700 
Q 1616 4750 1894 4750 
Q 2613 4750 3031 4423 
Q 3450 4097 3450 3541 
Q 3450 3153 3228 2886 
Q 3006 2619 2597 2516 
z
" transform="scale(0.015625)"/>
       </defs>
       <use xlink:href="#DejaVuSans-33"/>
       <use xlink:href="#DejaVuSans-30" transform="translate(63.623047 0)"/>
       <use xlink:href="#DejaVuSans-30" transform="translate(127.246094 0)"/>
       <use xlink:href="#DejaVuSans-30" transform="translate(190.869141 0)"/>
      </g>
     </g>
    </g>
    <g id="xtick_5">
     <g id="line2d_9">
      <path d="M 362.773872 478.29312 
L 362.773872 64.48896 
" clip-path="url(#p387f6d79f2)" style="fill: none; stroke: #b0b0b0; stroke-width: 0.8; stroke-linecap: square"/>
     </g>
     <g id="line2d_10">
      <g>
       <use xlink:href="#m61d695c886" x="362.773872" y="478.29312" style="stroke: #000000; stroke-width: 0.8"/>
      </g>
     </g>
     <g id="text_5">
      <!-- 4000 -->
      <g transform="translate(350.048872 492.891558) scale(0.1 -0.1)">
       <defs>
        <path id="DejaVuSans-34" d="M 2419 4116 
L 825 1625 
L 2419 1625 
L 2419 4116 
z
M 2253 4666 
L 3047 4666 
L 3047 1625 
L 3713 1625 
L 3713 1100 
L 3047 1100 
L 3047 0 
L 2419 0 
L 2419 1100 
L 313 1100 
L 313 1709 
L 2253 4666 
z
" transform="scale(0.015625)"/>
       </defs>
       <use xlink:href="#DejaVuSans-34"/>
       <use xlink:href="#DejaVuSans-30" transform="translate(63.623047 0)"/>
       <use xlink:href="#DejaVuSans-30" transform="translate(127.246094 0)"/>
       <use xlink:href="#DejaVuSans-30" transform="translate(190.869141 0)"/>
      </g>
     </g>
    </g>
    <g id="xtick_6">
     <g id="line2d_11">
      <path d="M 431.363667 478.29312 
L 431.363667 64.48896 
" clip-path="url(#p387f6d79f2)" style="fill: none; stroke: #b0b0b0; stroke-width: 0.8; stroke-linecap: square"/>
     </g>
     <g id="line2d_12">
      <g>
       <use xlink:href="#m61d695c886" x="431.363667" y="478.29312" style="stroke: #000000; stroke-width: 0.8"/>
      </g>
     </g>
     <g id="text_6">
      <!-- 5000 -->
      <g transform="translate(418.638667 492.891558) scale(0.1 -0.1)">
       <defs>
        <path id="DejaVuSans-35" d="M 691 4666 
L 3169 4666 
L 3169 4134 
L 1269 4134 
L 1269 2991 
Q 1406 3038 1543 3061 
Q 1681 3084 1819 3084 
Q 2600 3084 3056 2656 
Q 3513 2228 3513 1497 
Q 3513 744 3044 326 
Q 2575 -91 1722 -91 
Q 1428 -91 1123 -41 
Q 819 9 494 109 
L 494 744 
Q 775 591 1075 516 
Q 1375 441 1709 441 
Q 2250 441 2565 725 
Q 2881 1009 2881 1497 
Q 2881 1984 2565 2268 
Q 2250 2553 1709 2553 
Q 1456 2553 1204 2497 
Q 953 2441 691 2322 
L 691 4666 
z
" transform="scale(0.015625)"/>
       </defs>
       <use xlink:href="#DejaVuSans-35"/>
       <use xlink:href="#DejaVuSans-30" transform="translate(63.623047 0)"/>
       <use xlink:href="#DejaVuSans-30" transform="translate(127.246094 0)"/>
       <use xlink:href="#DejaVuSans-30" transform="translate(190.869141 0)"/>
      </g>
     </g>
    </g>
    <g id="text_7">
     <!-- Tiempo [s] -->
     <g transform="translate(256.2391 506.569682) scale(0.1 -0.1)">
      <defs>
       <path id="DejaVuSans-54" d="M -19 4666 
L 3928 4666 
L 3928 4134 
L 2272 4134 
L 2272 0 
L 1638 0 
L 1638 4134 
L -19 4134 
L -19 4666 
z
" transform="scale(0.015625)"/>
       <path id="DejaVuSans-69" d="M 603 3500 
L 1178 3500 
L 1178 0 
L 603 0 
L 603 3500 
z
M 603 4863 
L 1178 4863 
L 1178 4134 
L 603 4134 
L 603 4863 
z
" transform="scale(0.015625)"/>
       <path id="DejaVuSans-65" d="M 3597 1894 
L 3597 1613 
L 953 1613 
Q 991 1019 1311 708 
Q 1631 397 2203 397 
Q 2534 397 2845 478 
Q 3156 559 3463 722 
L 3463 178 
Q 3153 47 2828 -22 
Q 2503 -91 2169 -91 
Q 1331 -91 842 396 
Q 353 884 353 1716 
Q 353 2575 817 3079 
Q 1281 3584 2069 3584 
Q 2775 3584 3186 3129 
Q 3597 2675 3597 1894 
z
M 3022 2063 
Q 3016 2534 2758 2815 
Q 2500 3097 2075 3097 
Q 1594 3097 1305 2825 
Q 1016 2553 972 2059 
L 3022 2063 
z
" transform="scale(0.015625)"/>
       <path id="DejaVuSans-6d" d="M 3328 2828 
Q 3544 3216 3844 3400 
Q 4144 3584 4550 3584 
Q 5097 3584 5394 3201 
Q 5691 2819 5691 2113 
L 5691 0 
L 5113 0 
L 5113 2094 
Q 5113 2597 4934 2840 
Q 4756 3084 4391 3084 
Q 3944 3084 3684 2787 
Q 3425 2491 3425 1978 
L 3425 0 
L 2847 0 
L 2847 2094 
Q 2847 2600 2669 2842 
Q 2491 3084 2119 3084 
Q 1678 3084 1418 2786 
Q 1159 2488 1159 1978 
L 1159 0 
L 581 0 
L 581 3500 
L 1159 3500 
L 1159 2956 
Q 1356 3278 1631 3431 
Q 1906 3584 2284 3584 
Q 2666 3584 2933 3390 
Q 3200 3197 3328 2828 
z
" transform="scale(0.015625)"/>
       <path id="DejaVuSans-70" d="M 1159 525 
L 1159 -1331 
L 581 -1331 
L 581 3500 
L 1159 3500 
L 1159 2969 
Q 1341 3281 1617 3432 
Q 1894 3584 2278 3584 
Q 2916 3584 3314 3078 
Q 3713 2572 3713 1747 
Q 3713 922 3314 415 
Q 2916 -91 2278 -91 
Q 1894 -91 1617 61 
Q 1341 213 1159 525 
z
M 3116 1747 
Q 3116 2381 2855 2742 
Q 2594 3103 2138 3103 
Q 1681 3103 1420 2742 
Q 1159 2381 1159 1747 
Q 1159 1113 1420 752 
Q 1681 391 2138 391 
Q 2594 391 2855 752 
Q 3116 1113 3116 1747 
z
" transform="scale(0.015625)"/>
       <path id="DejaVuSans-6f" d="M 1959 3097 
Q 1497 3097 1228 2736 
Q 959 2375 959 1747 
Q 959 1119 1226 758 
Q 1494 397 1959 397 
Q 2419 397 2687 759 
Q 2956 1122 2956 1747 
Q 2956 2369 2687 2733 
Q 2419 3097 1959 3097 
z
M 1959 3584 
Q 2709 3584 3137 3096 
Q 3566 2609 3566 1747 
Q 3566 888 3137 398 
Q 2709 -91 1959 -91 
Q 1206 -91 779 398 
Q 353 888 353 1747 
Q 353 2609 779 3096 
Q 1206 3584 1959 3584 
z
" transform="scale(0.015625)"/>
       <path id="DejaVuSans-20" transform="scale(0.015625)"/>
       <path id="DejaVuSans-5b" d="M 550 4863 
L 1875 4863 
L 1875 4416 
L 1125 4416 
L 1125 -397 
L 1875 -397 
L 1875 -844 
L 550 -844 
L 550 4863 
z
" transform="scale(0.015625)"/>
       <path id="DejaVuSans-73" d="M 2834 3397 
L 2834 2853 
Q 2591 2978 2328 3040 
Q 2066 3103 1784 3103 
Q 1356 3103 1142 2972 
Q 928 2841 928 2578 
Q 928 2378 1081 2264 
Q 1234 2150 1697 2047 
L 1894 2003 
Q 2506 1872 2764 1633 
Q 3022 1394 3022 966 
Q 3022 478 2636 193 
Q 2250 -91 1575 -91 
Q 1294 -91 989 -36 
Q 684 19 347 128 
L 347 722 
Q 666 556 975 473 
Q 1284 391 1588 391 
Q 1994 391 2212 530 
Q 2431 669 2431 922 
Q 2431 1156 2273 1281 
Q 2116 1406 1581 1522 
L 1381 1569 
Q 847 1681 609 1914 
Q 372 2147 372 2553 
Q 372 3047 722 3315 
Q 1072 3584 1716 3584 
Q 2034 3584 2315 3537 
Q 2597 3491 2834 3397 
z
" transform="scale(0.015625)"/>
       <path id="DejaVuSans-5d" d="M 1947 4863 
L 1947 -844 
L 622 -844 
L 622 -397 
L 1369 -397 
L 1369 4416 
L 622 4416 
L 622 4863 
L 1947 4863 
z
" transform="scale(0.015625)"/>
      </defs>
      <use xlink:href="#DejaVuSans-54"/>
      <use xlink:href="#DejaVuSans-69" transform="translate(57.958984 0)"/>
      <use xlink:href="#DejaVuSans-65" transform="translate(85.742188 0)"/>
      <use xlink:href="#DejaVuSans-6d" transform="translate(147.265625 0)"/>
      <use xlink:href="#DejaVuSans-70" transform="translate(244.677734 0)"/>
      <use xlink:href="#DejaVuSans-6f" transform="translate(308.154297 0)"/>
      <use xlink:href="#DejaVuSans-20" transform="translate(369.335938 0)"/>
      <use xlink:href="#DejaVuSans-5b" transform="translate(401.123047 0)"/>
      <use xlink:href="#DejaVuSans-73" transform="translate(440.136719 0)"/>
      <use xlink:href="#DejaVuSans-5d" transform="translate(492.236328 0)"/>
     </g>
    </g>
   </g>
   <g id="matplotlib.axis_2">
    <g id="ytick_1">
     <g id="line2d_13">
      <path d="M 68.976 414.257058 
L 496.6272 414.257058 
" clip-path="url(#p387f6d79f2)" style="fill: none; stroke: #b0b0b0; stroke-width: 0.8; stroke-linecap: square"/>
     </g>
     <g id="line2d_14">
      <defs>
       <path id="mf957d706bd" d="M 0 0 
L -3.5 0 
" style="stroke: #000000; stroke-width: 0.8"/>
      </defs>
      <g>
       <use xlink:href="#mf957d706bd" x="68.976" y="414.257058" style="stroke: #000000; stroke-width: 0.8"/>
      </g>
     </g>
     <g id="text_8">
      <!-- 0.0 -->
      <g transform="translate(46.072875 418.056277) scale(0.1 -0.1)">
       <defs>
        <path id="DejaVuSans-2e" d="M 684 794 
L 1344 794 
L 1344 0 
L 684 0 
L 684 794 
z
" transform="scale(0.015625)"/>
       </defs>
       <use xlink:href="#DejaVuSans-30"/>
       <use xlink:href="#DejaVuSans-2e" transform="translate(63.623047 0)"/>
       <use xlink:href="#DejaVuSans-30" transform="translate(95.410156 0)"/>
      </g>
     </g>
    </g>
    <g id="ytick_2">
     <g id="line2d_15">
      <path d="M 68.976 348.065295 
L 496.6272 348.065295 
" clip-path="url(#p387f6d79f2)" style="fill: none; stroke: #b0b0b0; stroke-width: 0.8; stroke-linecap: square"/>
     </g>
     <g id="line2d_16">
      <g>
       <use xlink:href="#mf957d706bd" x="68.976" y="348.065295" style="stroke: #000000; stroke-width: 0.8"/>
      </g>
     </g>
     <g id="text_9">
      <!-- 0.2 -->
      <g transform="translate(46.072875 351.864513) scale(0.1 -0.1)">
       <use xlink:href="#DejaVuSans-30"/>
       <use xlink:href="#DejaVuSans-2e" transform="translate(63.623047 0)"/>
       <use xlink:href="#DejaVuSans-32" transform="translate(95.410156 0)"/>
      </g>
     </g>
    </g>
    <g id="ytick_3">
     <g id="line2d_17">
      <path d="M 68.976 281.873531 
L 496.6272 281.873531 
" clip-path="url(#p387f6d79f2)" style="fill: none; stroke: #b0b0b0; stroke-width: 0.8; stroke-linecap: square"/>
     </g>
     <g id="line2d_18">
      <g>
       <use xlink:href="#mf957d706bd" x="68.976" y="281.873531" style="stroke: #000000; stroke-width: 0.8"/>
      </g>
     </g>
     <g id="text_10">
      <!-- 0.4 -->
      <g transform="translate(46.072875 285.67275) scale(0.1 -0.1)">
       <use xlink:href="#DejaVuSans-30"/>
       <use xlink:href="#DejaVuSans-2e" transform="translate(63.623047 0)"/>
       <use xlink:href="#DejaVuSans-34" transform="translate(95.410156 0)"/>
      </g>
     </g>
    </g>
    <g id="ytick_4">
     <g id="line2d_19">
      <path d="M 68.976 215.681767 
L 496.6272 215.681767 
" clip-path="url(#p387f6d79f2)" style="fill: none; stroke: #b0b0b0; stroke-width: 0.8; stroke-linecap: square"/>
     </g>
     <g id="line2d_20">
      <g>
       <use xlink:href="#mf957d706bd" x="68.976" y="215.681767" style="stroke: #000000; stroke-width: 0.8"/>
      </g>
     </g>
     <g id="text_11">
      <!-- 0.6 -->
      <g transform="translate(46.072875 219.480986) scale(0.1 -0.1)">
       <defs>
        <path id="DejaVuSans-36" d="M 2113 2584 
Q 1688 2584 1439 2293 
Q 1191 2003 1191 1497 
Q 1191 994 1439 701 
Q 1688 409 2113 409 
Q 2538 409 2786 701 
Q 3034 994 3034 1497 
Q 3034 2003 2786 2293 
Q 2538 2584 2113 2584 
z
M 3366 4563 
L 3366 3988 
Q 3128 4100 2886 4159 
Q 2644 4219 2406 4219 
Q 1781 4219 1451 3797 
Q 1122 3375 1075 2522 
Q 1259 2794 1537 2939 
Q 1816 3084 2150 3084 
Q 2853 3084 3261 2657 
Q 3669 2231 3669 1497 
Q 3669 778 3244 343 
Q 2819 -91 2113 -91 
Q 1303 -91 875 529 
Q 447 1150 447 2328 
Q 447 3434 972 4092 
Q 1497 4750 2381 4750 
Q 2619 4750 2861 4703 
Q 3103 4656 3366 4563 
z
" transform="scale(0.015625)"/>
       </defs>
       <use xlink:href="#DejaVuSans-30"/>
       <use xlink:href="#DejaVuSans-2e" transform="translate(63.623047 0)"/>
       <use xlink:href="#DejaVuSans-36" transform="translate(95.410156 0)"/>
      </g>
     </g>
    </g>
    <g id="ytick_5">
     <g id="line2d_21">
      <path d="M 68.976 149.490004 
L 496.6272 149.490004 
" clip-path="url(#p387f6d79f2)" style="fill: none; stroke: #b0b0b0; stroke-width: 0.8; stroke-linecap: square"/>
     </g>
     <g id="line2d_22">
      <g>
       <use xlink:href="#mf957d706bd" x="68.976" y="149.490004" style="stroke: #000000; stroke-width: 0.8"/>
      </g>
     </g>
     <g id="text_12">
      <!-- 0.8 -->
      <g transform="translate(46.072875 153.289222) scale(0.1 -0.1)">
       <defs>
        <path id="DejaVuSans-38" d="M 2034 2216 
Q 1584 2216 1326 1975 
Q 1069 1734 1069 1313 
Q 1069 891 1326 650 
Q 1584 409 2034 409 
Q 2484 409 2743 651 
Q 3003 894 3003 1313 
Q 3003 1734 2745 1975 
Q 2488 2216 2034 2216 
z
M 1403 2484 
Q 997 2584 770 2862 
Q 544 3141 544 3541 
Q 544 4100 942 4425 
Q 1341 4750 2034 4750 
Q 2731 4750 3128 4425 
Q 3525 4100 3525 3541 
Q 3525 3141 3298 2862 
Q 3072 2584 2669 2484 
Q 3125 2378 3379 2068 
Q 3634 1759 3634 1313 
Q 3634 634 3220 271 
Q 2806 -91 2034 -91 
Q 1263 -91 848 271 
Q 434 634 434 1313 
Q 434 1759 690 2068 
Q 947 2378 1403 2484 
z
M 1172 3481 
Q 1172 3119 1398 2916 
Q 1625 2713 2034 2713 
Q 2441 2713 2670 2916 
Q 2900 3119 2900 3481 
Q 2900 3844 2670 4047 
Q 2441 4250 2034 4250 
Q 1625 4250 1398 4047 
Q 1172 3844 1172 3481 
z
" transform="scale(0.015625)"/>
       </defs>
       <use xlink:href="#DejaVuSans-30"/>
       <use xlink:href="#DejaVuSans-2e" transform="translate(63.623047 0)"/>
       <use xlink:href="#DejaVuSans-38" transform="translate(95.410156 0)"/>
      </g>
     </g>
    </g>
    <g id="ytick_6">
     <g id="line2d_23">
      <path d="M 68.976 83.29824 
L 496.6272 83.29824 
" clip-path="url(#p387f6d79f2)" style="fill: none; stroke: #b0b0b0; stroke-width: 0.8; stroke-linecap: square"/>
     </g>
     <g id="line2d_24">
      <g>
       <use xlink:href="#mf957d706bd" x="68.976" y="83.29824" style="stroke: #000000; stroke-width: 0.8"/>
      </g>
     </g>
     <g id="text_13">
      <!-- 1.0 -->
      <g transform="translate(46.072875 87.097459) scale(0.1 -0.1)">
       <use xlink:href="#DejaVuSans-31"/>
       <use xlink:href="#DejaVuSans-2e" transform="translate(63.623047 0)"/>
       <use xlink:href="#DejaVuSans-30" transform="translate(95.410156 0)"/>
      </g>
     </g>
    </g>
    <g id="text_14">
     <!-- Quaternion -->
     <g transform="translate(39.993187 299.350415) rotate(-90) scale(0.1 -0.1)">
      <defs>
       <path id="DejaVuSans-51" d="M 2522 4238 
Q 1834 4238 1429 3725 
Q 1025 3213 1025 2328 
Q 1025 1447 1429 934 
Q 1834 422 2522 422 
Q 3209 422 3611 934 
Q 4013 1447 4013 2328 
Q 4013 3213 3611 3725 
Q 3209 4238 2522 4238 
z
M 3406 84 
L 4238 -825 
L 3475 -825 
L 2784 -78 
Q 2681 -84 2626 -87 
Q 2572 -91 2522 -91 
Q 1538 -91 948 567 
Q 359 1225 359 2328 
Q 359 3434 948 4092 
Q 1538 4750 2522 4750 
Q 3503 4750 4090 4092 
Q 4678 3434 4678 2328 
Q 4678 1516 4351 937 
Q 4025 359 3406 84 
z
" transform="scale(0.015625)"/>
       <path id="DejaVuSans-75" d="M 544 1381 
L 544 3500 
L 1119 3500 
L 1119 1403 
Q 1119 906 1312 657 
Q 1506 409 1894 409 
Q 2359 409 2629 706 
Q 2900 1003 2900 1516 
L 2900 3500 
L 3475 3500 
L 3475 0 
L 2900 0 
L 2900 538 
Q 2691 219 2414 64 
Q 2138 -91 1772 -91 
Q 1169 -91 856 284 
Q 544 659 544 1381 
z
M 1991 3584 
L 1991 3584 
z
" transform="scale(0.015625)"/>
       <path id="DejaVuSans-61" d="M 2194 1759 
Q 1497 1759 1228 1600 
Q 959 1441 959 1056 
Q 959 750 1161 570 
Q 1363 391 1709 391 
Q 2188 391 2477 730 
Q 2766 1069 2766 1631 
L 2766 1759 
L 2194 1759 
z
M 3341 1997 
L 3341 0 
L 2766 0 
L 2766 531 
Q 2569 213 2275 61 
Q 1981 -91 1556 -91 
Q 1019 -91 701 211 
Q 384 513 384 1019 
Q 384 1609 779 1909 
Q 1175 2209 1959 2209 
L 2766 2209 
L 2766 2266 
Q 2766 2663 2505 2880 
Q 2244 3097 1772 3097 
Q 1472 3097 1187 3025 
Q 903 2953 641 2809 
L 641 3341 
Q 956 3463 1253 3523 
Q 1550 3584 1831 3584 
Q 2591 3584 2966 3190 
Q 3341 2797 3341 1997 
z
" transform="scale(0.015625)"/>
       <path id="DejaVuSans-74" d="M 1172 4494 
L 1172 3500 
L 2356 3500 
L 2356 3053 
L 1172 3053 
L 1172 1153 
Q 1172 725 1289 603 
Q 1406 481 1766 481 
L 2356 481 
L 2356 0 
L 1766 0 
Q 1100 0 847 248 
Q 594 497 594 1153 
L 594 3053 
L 172 3053 
L 172 3500 
L 594 3500 
L 594 4494 
L 1172 4494 
z
" transform="scale(0.015625)"/>
       <path id="DejaVuSans-72" d="M 2631 2963 
Q 2534 3019 2420 3045 
Q 2306 3072 2169 3072 
Q 1681 3072 1420 2755 
Q 1159 2438 1159 1844 
L 1159 0 
L 581 0 
L 581 3500 
L 1159 3500 
L 1159 2956 
Q 1341 3275 1631 3429 
Q 1922 3584 2338 3584 
Q 2397 3584 2469 3576 
Q 2541 3569 2628 3553 
L 2631 2963 
z
" transform="scale(0.015625)"/>
       <path id="DejaVuSans-6e" d="M 3513 2113 
L 3513 0 
L 2938 0 
L 2938 2094 
Q 2938 2591 2744 2837 
Q 2550 3084 2163 3084 
Q 1697 3084 1428 2787 
Q 1159 2491 1159 1978 
L 1159 0 
L 581 0 
L 581 3500 
L 1159 3500 
L 1159 2956 
Q 1366 3272 1645 3428 
Q 1925 3584 2291 3584 
Q 2894 3584 3203 3211 
Q 3513 2838 3513 2113 
z
" transform="scale(0.015625)"/>
      </defs>
      <use xlink:href="#DejaVuSans-51"/>
      <use xlink:href="#DejaVuSans-75" transform="translate(78.710938 0)"/>
      <use xlink:href="#DejaVuSans-61" transform="translate(142.089844 0)"/>
      <use xlink:href="#DejaVuSans-74" transform="translate(203.369141 0)"/>
      <use xlink:href="#DejaVuSans-65" transform="translate(242.578125 0)"/>
      <use xlink:href="#DejaVuSans-72" transform="translate(304.101562 0)"/>
      <use xlink:href="#DejaVuSans-6e" transform="translate(343.464844 0)"/>
      <use xlink:href="#DejaVuSans-69" transform="translate(406.84375 0)"/>
      <use xlink:href="#DejaVuSans-6f" transform="translate(434.626953 0)"/>
      <use xlink:href="#DejaVuSans-6e" transform="translate(495.808594 0)"/>
     </g>
    </g>
   </g>
   <g id="line2d_25">
    <path d="M 88.414691 83.29824 
L 91.967642 83.409209 
L 95.534312 83.743386 
L 99.121558 84.303285 
L 102.749958 85.095613 
L 106.426371 86.126904 
L 110.171374 87.409383 
L 114.005543 88.959053 
L 117.942598 90.792033 
L 122.003114 92.92973 
L 126.214527 95.400432 
L 130.611133 98.240637 
L 135.227226 101.490974 
L 140.11082 105.205456 
L 145.344221 109.470232 
L 151.037174 114.402394 
L 157.388589 120.206948 
L 164.830582 127.320989 
L 174.830974 137.213959 
L 194.975797 157.20006 
L 202.705867 164.507431 
L 209.290487 170.432545 
L 215.216645 175.471381 
L 220.703829 179.849386 
L 225.861782 183.684272 
L 230.772811 187.062113 
L 235.491789 190.040959 
L 240.05301 192.660076 
L 244.497629 194.957881 
L 248.846222 196.957319 
L 253.119366 198.678928 
L 257.344498 200.142692 
L 261.542193 201.362355 
L 265.72617 202.347298 
L 269.923866 203.10762 
L 274.162715 203.649208 
L 278.456436 203.973392 
L 282.839324 204.080845 
L 287.345674 203.968009 
L 292.023498 203.62673 
L 296.920809 203.044425 
L 302.126775 202.198725 
L 307.771715 201.052665 
L 314.109412 199.533265 
L 321.757174 197.46064 
L 335.036159 193.581917 
L 345.331487 190.686217 
L 352.259056 188.965404 
L 358.137202 187.729918 
L 363.418616 186.843596 
L 368.302209 186.246625 
L 372.904584 185.905969 
L 377.287472 185.802597 
L 381.512604 185.924158 
L 385.607415 186.263377 
L 389.6062 186.816902 
L 393.536395 187.585035 
L 397.418577 188.570445 
L 401.266465 189.776624 
L 405.107493 191.214465 
L 408.948522 192.890716 
L 412.810127 194.819961 
L 416.699169 197.012728 
L 420.636223 199.489265 
L 424.635008 202.269056 
L 428.709242 205.373968 
L 432.879501 208.834042 
L 437.159505 212.676821 
L 441.569828 216.938406 
L 446.137909 221.665307 
L 450.884323 226.900462 
L 455.850224 232.7129 
L 461.083625 239.185639 
L 466.653117 246.433709 
L 472.654724 254.616129 
L 477.188509 261.022436 
L 477.188509 261.022436 
" clip-path="url(#p387f6d79f2)" style="fill: none; stroke: #1f77b4; stroke-width: 1.5; stroke-linecap: square"/>
   </g>
   <g id="line2d_26">
    <path d="M 88.414691 414.257058 
L 90.801616 414.146004 
L 93.1954 413.811798 
L 95.60976 413.249396 
L 98.058416 412.44911 
L 100.548226 411.3998 
L 103.099766 410.080525 
L 105.719896 408.472096 
L 108.415475 406.553337 
L 111.20708 404.289413 
L 114.101569 401.651503 
L 117.112661 398.602059 
L 120.254074 395.099716 
L 123.546384 391.091132 
L 127.010169 386.517666 
L 130.672864 381.306443 
L 134.561905 375.379406 
L 138.725306 368.621556 
L 143.238514 360.863049 
L 148.211274 351.861299 
L 153.849356 341.18136 
L 160.660322 327.780968 
L 171.195715 306.49004 
L 182.807967 283.161573 
L 189.447459 270.323933 
L 194.962079 260.131814 
L 199.838813 251.57476 
L 204.269714 244.238976 
L 208.364525 237.88041 
L 212.191835 232.339821 
L 215.7928 227.510743 
L 219.201712 223.3046 
L 222.439151 219.656799 
L 225.525692 216.5077 
L 228.481912 213.803641 
L 231.321529 211.502798 
L 234.058262 209.567561 
L 236.698969 207.968645 
L 239.264227 206.672478 
L 241.760896 205.657915 
L 244.195834 204.905954 
L 246.589618 204.397553 
L 248.955966 204.121606 
L 251.301737 204.071616 
L 253.640649 204.244095 
L 255.98642 204.640337 
L 258.352768 205.266436 
L 260.75341 206.133326 
L 263.195207 207.253366 
L 265.691876 208.645328 
L 268.257134 210.332977 
L 270.897841 212.339564 
L 273.627715 214.696826 
L 276.460473 217.441465 
L 279.402976 220.607297 
L 282.468939 224.238262 
L 285.672083 228.382495 
L 289.026124 233.091744 
L 292.551639 238.431296 
L 296.276065 244.482553 
L 300.233696 251.345006 
L 304.465687 259.137191 
L 309.040626 268.037056 
L 314.061399 278.302831 
L 319.713198 290.380003 
L 326.42128 305.261426 
L 335.804364 326.67234 
L 351.161619 361.715886 
L 357.993163 376.707786 
L 363.692975 388.694679 
L 368.748043 398.819976 
L 373.350418 407.551721 
L 377.616703 415.178231 
L 381.608629 421.866937 
L 385.36735 427.738987 
L 388.927161 432.895718 
L 392.315497 437.419944 
L 395.552935 441.378176 
L 398.653194 444.823397 
L 401.629991 447.804605 
L 404.497044 450.366301 
L 407.268072 452.548168 
L 409.949933 454.380571 
L 412.556345 455.895239 
L 415.094167 457.115824 
L 417.577118 458.065882 
L 420.018915 458.763931 
L 422.426417 459.222576 
L 424.8202 459.452841 
L 427.207125 459.459023 
L 429.600909 459.242357 
L 432.01527 458.799451 
L 434.457067 458.124548 
L 436.946876 457.204201 
L 439.498417 456.021398 
L 442.118547 454.55882 
L 444.820985 452.792584 
L 447.619448 450.694594 
L 450.527656 448.232757 
L 453.566184 445.364505 
L 456.741891 442.056374 
L 460.082214 438.250682 
L 463.614589 433.882993 
L 467.36645 428.883707 
L 471.385812 423.150144 
L 475.734405 416.551572 
L 477.188509 414.262233 
L 477.188509 414.262233 
" clip-path="url(#p387f6d79f2)" style="fill: none; stroke: #ff7f0e; stroke-width: 1.5; stroke-linecap: square"/>
   </g>
   <g id="line2d_27">
    <path d="M 88.414691 414.257058 
L 101.618226 382.692296 
L 108.607527 366.57301 
L 114.410223 353.733949 
L 119.547599 342.89423 
L 124.225423 333.532729 
L 128.553439 325.359273 
L 132.600237 318.183358 
L 136.41383 311.865838 
L 140.021653 306.311546 
L 143.458002 301.422624 
L 146.736594 297.138522 
L 149.871147 293.401929 
L 152.882239 290.152611 
L 155.776729 287.350522 
L 158.568333 284.952045 
L 161.270771 282.91874 
L 163.890902 281.221498 
L 166.442442 279.830268 
L 168.932251 278.722958 
L 171.374048 277.877899 
L 173.78155 277.278522 
L 176.161616 276.913956 
L 178.527964 276.775528 
L 180.894312 276.859363 
L 183.274378 277.166298 
L 185.681879 277.701814 
L 188.130535 278.475994 
L 190.627204 279.500343 
L 193.192462 280.795864 
L 195.833169 282.381726 
L 198.563043 284.283911 
L 201.395802 286.532563 
L 204.345163 289.161712 
L 207.431704 292.216003 
L 210.669142 295.737885 
L 214.078055 299.780324 
L 217.692737 304.418047 
L 221.547483 309.732685 
L 225.690307 315.830626 
L 230.210375 322.888557 
L 235.238007 331.162488 
L 241.047562 341.166861 
L 248.400388 354.299338 
L 270.698931 394.428273 
L 276.474191 404.183234 
L 281.474387 412.203522 
L 285.973878 419.009939 
L 290.109843 424.871409 
L 293.95773 429.946264 
L 297.565553 434.343746 
L 300.974466 438.155002 
L 304.211905 441.447138 
L 307.298445 444.274363 
L 310.254666 446.685572 
L 313.094283 448.719042 
L 315.831016 450.409233 
L 318.478582 451.786449 
L 321.050699 452.876623 
L 323.561086 453.701197 
L 326.0166 454.275776 
L 328.43782 454.615227 
L 330.831604 454.727238 
L 333.218529 454.616165 
L 335.605454 454.281723 
L 338.006097 453.719594 
L 340.427316 452.923322 
L 342.88969 451.877821 
L 345.400077 450.568335 
L 347.972194 448.973285 
L 350.612901 447.071422 
L 353.335916 444.833314 
L 356.154956 442.224605 
L 359.076882 439.213506 
L 362.11541 435.758323 
L 365.284258 431.813033 
L 368.597145 427.327767 
L 372.074648 422.239111 
L 375.737343 416.478541 
L 379.612666 409.962027 
L 383.741772 402.57593 
L 388.179532 394.173264 
L 393.015112 384.530488 
L 398.392552 373.297535 
L 404.599929 359.797738 
L 412.480896 342.092291 
L 435.609375 289.792339 
L 441.782457 276.587092 
L 447.111884 265.69831 
L 451.906311 256.397077 
L 456.309775 248.329784 
L 460.404586 241.282976 
L 464.245615 235.106852 
L 467.874015 229.685859 
L 471.317223 224.934273 
L 474.595815 220.7822 
L 477.188509 217.765553 
L 477.188509 217.765553 
" clip-path="url(#p387f6d79f2)" style="fill: none; stroke: #2ca02c; stroke-width: 1.5; stroke-linecap: square"/>
   </g>
   <g id="line2d_28">
    <path d="M 88.414691 414.257058 
L 101.714252 414.145982 
L 108.833873 413.856828 
L 114.83548 413.394502 
L 120.240356 412.758174 
L 125.267988 411.944433 
L 130.02812 410.95039 
L 134.603059 409.768828 
L 139.040819 408.393473 
L 143.382553 406.81497 
L 147.655697 405.02442 
L 151.887687 403.009388 
L 156.099101 400.757146 
L 160.310514 398.251982 
L 164.549364 395.470199 
L 168.822508 392.398347 
L 173.157383 389.006129 
L 177.567707 385.270017 
L 182.074056 381.158373 
L 186.697008 376.636432 
L 191.463999 371.659368 
L 196.409323 366.170734 
L 201.567276 360.109564 
L 206.992729 353.38587 
L 212.754272 345.88587 
L 218.968507 337.4245 
L 225.820628 327.7099 
L 233.701595 316.137635 
L 243.763718 300.941523 
L 270.266815 260.719488 
L 278.092911 249.369242 
L 284.842146 239.963465 
L 290.93292 231.849149 
L 296.564142 224.711109 
L 301.845557 218.369934 
L 306.852612 212.700914 
L 311.63332 207.619917 
L 316.221978 203.063412 
L 320.652878 198.973146 
L 324.9466 195.308443 
L 329.130577 192.026718 
L 333.218529 189.100323 
L 337.224173 186.50374 
L 341.168086 184.210048 
L 345.063987 182.199914 
L 348.925592 180.456492 
L 352.766621 178.965419 
L 356.60079 177.714745 
L 360.448678 176.69321 
L 364.324001 175.894522 
L 368.240478 175.314273 
L 372.225545 174.948793 
L 376.306638 174.79866 
L 380.504334 174.867754 
L 384.859786 175.16324 
L 389.421007 175.697675 
L 394.249729 176.490109 
L 399.441976 177.571088 
L 405.155506 178.992268 
L 411.726409 180.863118 
L 420.101223 183.493429 
L 442.907329 190.779357 
L 449.587976 192.602472 
L 455.411249 193.965237 
L 460.726958 194.984041 
L 465.699718 195.713089 
L 470.425555 196.182929 
L 474.9662 196.412252 
L 477.188509 196.440671 
L 477.188509 196.440671 
" clip-path="url(#p387f6d79f2)" style="fill: none; stroke: #d62728; stroke-width: 1.5; stroke-linecap: square"/>
   </g>
   <g id="patch_3">
    <path d="M 68.976 478.29312 
L 68.976 64.48896 
" style="fill: none; stroke: #000000; stroke-width: 0.8; stroke-linejoin: miter; stroke-linecap: square"/>
   </g>
   <g id="patch_4">
    <path d="M 496.6272 478.29312 
L 496.6272 64.48896 
" style="fill: none; stroke: #000000; stroke-width: 0.8; stroke-linejoin: miter; stroke-linecap: square"/>
   </g>
   <g id="patch_5">
    <path d="M 68.976 478.29312 
L 496.6272 478.29312 
" style="fill: none; stroke: #000000; stroke-width: 0.8; stroke-linejoin: miter; stroke-linecap: square"/>
   </g>
   <g id="patch_6">
    <path d="M 68.976 64.48896 
L 496.6272 64.48896 
" style="fill: none; stroke: #000000; stroke-width: 0.8; stroke-linejoin: miter; stroke-linecap: square"/>
   </g>
   <g id="text_15">
    <!-- Quaternion Error -->
    <g transform="translate(232.721288 58.48896) scale(0.12 -0.12)">
     <defs>
      <path id="DejaVuSans-45" d="M 628 4666 
L 3578 4666 
L 3578 4134 
L 1259 4134 
L 1259 2753 
L 3481 2753 
L 3481 2222 
L 1259 2222 
L 1259 531 
L 3634 531 
L 3634 0 
L 628 0 
L 628 4666 
z
" transform="scale(0.015625)"/>
     </defs>
     <use xlink:href="#DejaVuSans-51"/>
     <use xlink:href="#DejaVuSans-75" transform="translate(78.710938 0)"/>
     <use xlink:href="#DejaVuSans-61" transform="translate(142.089844 0)"/>
     <use xlink:href="#DejaVuSans-74" transform="translate(203.369141 0)"/>
     <use xlink:href="#DejaVuSans-65" transform="translate(242.578125 0)"/>
     <use xlink:href="#DejaVuSans-72" transform="translate(304.101562 0)"/>
     <use xlink:href="#DejaVuSans-6e" transform="translate(343.464844 0)"/>
     <use xlink:href="#DejaVuSans-69" transform="translate(406.84375 0)"/>
     <use xlink:href="#DejaVuSans-6f" transform="translate(434.626953 0)"/>
     <use xlink:href="#DejaVuSans-6e" transform="translate(495.808594 0)"/>
     <use xlink:href="#DejaVuSans-20" transform="translate(559.1875 0)"/>
     <use xlink:href="#DejaVuSans-45" transform="translate(590.974609 0)"/>
     <use xlink:href="#DejaVuSans-72" transform="translate(654.158203 0)"/>
     <use xlink:href="#DejaVuSans-72" transform="translate(693.521484 0)"/>
     <use xlink:href="#DejaVuSans-6f" transform="translate(732.384766 0)"/>
     <use xlink:href="#DejaVuSans-72" transform="translate(793.566406 0)"/>
    </g>
   </g>
   <g id="legend_1">
    <g id="patch_7">
     <path d="M 443.100638 131.20146 
L 489.6272 131.20146 
Q 491.6272 131.20146 491.6272 129.20146 
L 491.6272 71.48896 
Q 491.6272 69.48896 489.6272 69.48896 
L 443.100638 69.48896 
Q 441.100638 69.48896 441.100638 71.48896 
L 441.100638 129.20146 
Q 441.100638 131.20146 443.100638 131.20146 
z
" style="fill: #ffffff; opacity: 0.8; stroke: #cccccc; stroke-linejoin: miter"/>
    </g>
    <g id="line2d_29">
     <path d="M 445.100638 77.587398 
L 455.100638 77.587398 
L 465.100638 77.587398 
" style="fill: none; stroke: #1f77b4; stroke-width: 1.5; stroke-linecap: square"/>
    </g>
    <g id="text_16">
     <!-- qw -->
     <g transform="translate(473.100638 81.087398) scale(0.1 -0.1)">
      <defs>
       <path id="DejaVuSans-71" d="M 947 1747 
Q 947 1113 1208 752 
Q 1469 391 1925 391 
Q 2381 391 2643 752 
Q 2906 1113 2906 1747 
Q 2906 2381 2643 2742 
Q 2381 3103 1925 3103 
Q 1469 3103 1208 2742 
Q 947 2381 947 1747 
z
M 2906 525 
Q 2725 213 2448 61 
Q 2172 -91 1784 -91 
Q 1150 -91 751 415 
Q 353 922 353 1747 
Q 353 2572 751 3078 
Q 1150 3584 1784 3584 
Q 2172 3584 2448 3432 
Q 2725 3281 2906 2969 
L 2906 3500 
L 3481 3500 
L 3481 -1331 
L 2906 -1331 
L 2906 525 
z
" transform="scale(0.015625)"/>
       <path id="DejaVuSans-77" d="M 269 3500 
L 844 3500 
L 1563 769 
L 2278 3500 
L 2956 3500 
L 3675 769 
L 4391 3500 
L 4966 3500 
L 4050 0 
L 3372 0 
L 2619 2869 
L 1863 0 
L 1184 0 
L 269 3500 
z
" transform="scale(0.015625)"/>
      </defs>
      <use xlink:href="#DejaVuSans-71"/>
      <use xlink:href="#DejaVuSans-77" transform="translate(63.476562 0)"/>
     </g>
    </g>
    <g id="line2d_30">
     <path d="M 445.100638 92.265523 
L 455.100638 92.265523 
L 465.100638 92.265523 
" style="fill: none; stroke: #ff7f0e; stroke-width: 1.5; stroke-linecap: square"/>
    </g>
    <g id="text_17">
     <!-- qx -->
     <g transform="translate(473.100638 95.765523) scale(0.1 -0.1)">
      <defs>
       <path id="DejaVuSans-78" d="M 3513 3500 
L 2247 1797 
L 3578 0 
L 2900 0 
L 1881 1375 
L 863 0 
L 184 0 
L 1544 1831 
L 300 3500 
L 978 3500 
L 1906 2253 
L 2834 3500 
L 3513 3500 
z
" transform="scale(0.015625)"/>
      </defs>
      <use xlink:href="#DejaVuSans-71"/>
      <use xlink:href="#DejaVuSans-78" transform="translate(63.476562 0)"/>
     </g>
    </g>
    <g id="line2d_31">
     <path d="M 445.100638 106.943647 
L 455.100638 106.943647 
L 465.100638 106.943647 
" style="fill: none; stroke: #2ca02c; stroke-width: 1.5; stroke-linecap: square"/>
    </g>
    <g id="text_18">
     <!-- qy -->
     <g transform="translate(473.100638 110.443647) scale(0.1 -0.1)">
      <defs>
       <path id="DejaVuSans-79" d="M 2059 -325 
Q 1816 -950 1584 -1140 
Q 1353 -1331 966 -1331 
L 506 -1331 
L 506 -850 
L 844 -850 
Q 1081 -850 1212 -737 
Q 1344 -625 1503 -206 
L 1606 56 
L 191 3500 
L 800 3500 
L 1894 763 
L 2988 3500 
L 3597 3500 
L 2059 -325 
z
" transform="scale(0.015625)"/>
      </defs>
      <use xlink:href="#DejaVuSans-71"/>
      <use xlink:href="#DejaVuSans-79" transform="translate(63.476562 0)"/>
     </g>
    </g>
    <g id="line2d_32">
     <path d="M 445.100638 121.621773 
L 455.100638 121.621773 
L 465.100638 121.621773 
" style="fill: none; stroke: #d62728; stroke-width: 1.5; stroke-linecap: square"/>
    </g>
    <g id="text_19">
     <!-- qz -->
     <g transform="translate(473.100638 125.121773) scale(0.1 -0.1)">
      <defs>
       <path id="DejaVuSans-7a" d="M 353 3500 
L 3084 3500 
L 3084 2975 
L 922 459 
L 3084 459 
L 3084 0 
L 275 0 
L 275 525 
L 2438 3041 
L 353 3041 
L 353 3500 
z
" transform="scale(0.015625)"/>
      </defs>
      <use xlink:href="#DejaVuSans-71"/>
      <use xlink:href="#DejaVuSans-7a" transform="translate(63.476562 0)"/>
     </g>
    </g>
   </g>
  </g>
 </g>
 <defs>
  <clipPath id="p387f6d79f2">
   <rect x="68.976" y="64.48896" width="427.6512" height="413.80416"/>
  </clipPath>
 </defs>
</svg>
