<?xml version="1.0" encoding="utf-8" standalone="no"?>
<!DOCTYPE svg PUBLIC "-//W3C//DTD SVG 1.1//EN"
  "http://www.w3.org/Graphics/SVG/1.1/DTD/svg11.dtd">
<svg xmlns:xlink="http://www.w3.org/1999/xlink" width="551.808pt" height="537.408pt" viewBox="0 0 551.808 537.408" xmlns="http://www.w3.org/2000/svg" version="1.1">
 <metadata>
  <rdf:RDF xmlns:dc="http://purl.org/dc/elements/1.1/" xmlns:cc="http://creativecommons.org/ns#" xmlns:rdf="http://www.w3.org/1999/02/22-rdf-syntax-ns#">
   <cc:Work>
    <dc:type rdf:resource="http://purl.org/dc/dcmitype/StillImage"/>
    <dc:date>2026-05-08T12:12:27.524320</dc:date>
    <dc:format>image/svg+xml</dc:format>
    <dc:creator>
     <cc:Agent>
      <dc:title>Matplotlib v3.10.1, https://matplotlib.org/</dc:title>
     </cc:Agent>
    </dc:creator>
   </cc:Work>
  </rdf:RDF>
 </metadata>
 <defs>
  <style type="text/css">*{stroke-linejoin: round; stroke-linecap: butt}</style>
 </defs>
 <g id="figure_1">
  <g id="patch_1">
   <path d="M 0 537.408 
L 551.808 537.408 
L 551.808 0 
L 0 0 
z
" style="fill: #ffffff"/>
  </g>
  <g id="axes_1">
   <g id="patch_2">
    <path d="M 68.976 478.29312 
L 496.6272 478.29312 
L 496.6272 64.48896 
L 68.976 64.48896 
z
" style="fill: #ffffff"/>
   </g>
   <g id="matplotlib.axis_1">
    <g id="xtick_1">
     <g id="line2d_1">
      <path d="M 88.414691 478.29312 
L 88.414691 64.48896 
" clip-path="url(#p14db9aeb4b)" style="fill: none; stroke: #b0b0b0; stroke-width: 0.8; stroke-linecap: square"/>
     </g>
     <g id="line2d_2">
      <defs>
       <path id="m49d38c245a" d="M 0 0 
L 0 3.5 
" style="stroke: #000000; stroke-width: 0.8"/>
      </defs>
      <g>
       <use xlink:href="#m49d38c245a" x="88.414691" y="478.29312" style="stroke: #000000; stroke-width: 0.8"/>
      </g>
     </g>
     <g id="text_1">
      <!-- 0 -->
      <g transform="translate(85.233441 492.891558) scale(0.1 -0.1)">
       <defs>
        <path id="DejaVuSans-30" d="M 2034 4250 
Q 1547 4250 1301 3770 
Q 1056 3291 1056 2328 
Q 1056 1369 1301 889 
Q 1547 409 2034 409 
Q 2525 409 2770 889 
Q 3016 1369 3016 2328 
Q 3016 3291 2770 3770 
Q 2525 4250 2034 4250 
z
M 2034 4750 
Q 2819 4750 3233 4129 
Q 3647 3509 3647 2328 
Q 3647 1150 3233 529 
Q 2819 -91 2034 -91 
Q 1250 -91 836 529 
Q 422 1150 422 2328 
Q 422 3509 836 4129 
Q 1250 4750 2034 4750 
z
" transform="scale(0.015625)"/>
       </defs>
       <use xlink:href="#DejaVuSans-30"/>
      </g>
     </g>
    </g>
    <g id="xtick_2">
     <g id="line2d_3">
      <path d="M 157.004486 478.29312 
L 157.004486 64.48896 
" clip-path="url(#p14db9aeb4b)" style="fill: none; stroke: #b0b0b0; stroke-width: 0.8; stroke-linecap: square"/>
     </g>
     <g id="line2d_4">
      <g>
       <use xlink:href="#m49d38c245a" x="157.004486" y="478.29312" style="stroke: #000000; stroke-width: 0.8"/>
      </g>
     </g>
     <g id="text_2">
      <!-- 1000 -->
      <g transform="translate(144.279486 492.891558) scale(0.1 -0.1)">
       <defs>
        <path id="DejaVuSans-31" d="M 794 531 
L 1825 531 
L 1825 4091 
L 703 3866 
L 703 4441 
L 1819 4666 
L 2450 4666 
L 2450 531 
L 3481 531 
L 3481 0 
L 794 0 
L 794 531 
z
" transform="scale(0.015625)"/>
       </defs>
       <use xlink:href="#DejaVuSans-31"/>
       <use xlink:href="#DejaVuSans-30" transform="translate(63.623047 0)"/>
       <use xlink:href="#DejaVuSans-30" transform="translate(127.246094 0)"/>
       <use xlink:href="#DejaVuSans-30" transform="translate(190.869141 0)"/>
      </g>
     </g>
    </g>
    <g id="xtick_3">
     <g id="line2d_5">
      <path d="M 225.594281 478.29312 
L 225.594281 64.48896 
" clip-path="url(#p14db9aeb4b)" style="fill: none; stroke: #b0b0b0; stroke-width: 0.8; stroke-linecap: square"/>
     </g>
     <g id="line2d_6">
      <g>
       <use xlink:href="#m49d38c245a" x="225.594281" y="478.29312" style="stroke: #000000; stroke-width: 0.8"/>
      </g>
     </g>
     <g id="text_3">
      <!-- 2000 -->
      <g transform="translate(212.869281 492.891558) scale(0.1 -0.1)">
       <defs>
        <path id="DejaVuSans-32" d="M 1228 531 
L 3431 531 
L 3431 0 
L 469 0 
L 469 531 
Q 828 903 1448 1529 
Q 2069 2156 2228 2338 
Q 2531 2678 2651 2914 
Q 2772 3150 2772 3378 
Q 2772 3750 2511 3984 
Q 2250 4219 1831 4219 
Q 1534 4219 1204 4116 
Q 875 4013 500 3803 
L 500 4441 
Q 881 4594 1212 4672 
Q 1544 4750 1819 4750 
Q 2544 4750 2975 4387 
Q 3406 4025 3406 3419 
Q 3406 3131 3298 2873 
Q 3191 2616 2906 2266 
Q 2828 2175 2409 1742 
Q 1991 1309 1228 531 
z
" transform="scale(0.015625)"/>
       </defs>
       <use xlink:href="#DejaVuSans-32"/>
       <use xlink:href="#DejaVuSans-30" transform="translate(63.623047 0)"/>
       <use xlink:href="#DejaVuSans-30" transform="translate(127.246094 0)"/>
       <use xlink:href="#DejaVuSans-30" transform="translate(190.869141 0)"/>
      </g>
     </g>
    </g>
    <g id="xtick_4">
     <g id="line2d_7">
      <path d="M 294.184077 478.29312 
L 294.184077 64.48896 
" clip-path="url(#p14db9aeb4b)" style="fill: none; stroke: #b0b0b0; stroke-width: 0.8; stroke-linecap: square"/>
     </g>
     <g id="line2d_8">
      <g>
       <use xlink:href="#m49d38c245a" x="294.184077" y="478.29312" style="stroke: #000000; stroke-width: 0.8"/>
      </g>
     </g>
     <g id="text_4">
      <!-- 3000 -->
      <g transform="translate(281.459077 492.891558) scale(0.1 -0.1)">
       <defs>
        <path id="DejaVuSans-33" d="M 2597 2516 
Q 3050 2419 3304 2112 
Q 3559 1806 3559 1356 
Q 3559 666 3084 287 
Q 2609 -91 1734 -91 
Q 1441 -91 1130 -33 
Q 819 25 488 141 
L 488 750 
Q 750 597 1062 519 
Q 1375 441 1716 441 
Q 2309 441 2620 675 
Q 2931 909 2931 1356 
Q 2931 1769 2642 2001 
Q 2353 2234 1838 2234 
L 1294 2234 
L 1294 2753 
L 1863 2753 
Q 2328 2753 2575 2939 
Q 2822 3125 2822 3475 
Q 2822 3834 2567 4026 
Q 2313 4219 1838 4219 
Q 1578 4219 1281 4162 
Q 984 4106 628 3988 
L 628 4550 
Q 988 4650 1302 4700 
Q 1616 4750 1894 4750 
Q 2613 4750 3031 4423 
Q 3450 4097 3450 3541 
Q 3450 3153 3228 2886 
Q 3006 2619 2597 2516 
z
" transform="scale(0.015625)"/>
       </defs>
       <use xlink:href="#DejaVuSans-33"/>
       <use xlink:href="#DejaVuSans-30" transform="translate(63.623047 0)"/>
       <use xlink:href="#DejaVuSans-30" transform="translate(127.246094 0)"/>
       <use xlink:href="#DejaVuSans-30" transform="translate(190.869141 0)"/>
      </g>
     </g>
    </g>
    <g id="xtick_5">
     <g id="line2d_9">
      <path d="M 362.773872 478.29312 
L 362.773872 64.48896 
" clip-path="url(#p14db9aeb4b)" style="fill: none; stroke: #b0b0b0; stroke-width: 0.8; stroke-linecap: square"/>
     </g>
     <g id="line2d_10">
      <g>
       <use xlink:href="#m49d38c245a" x="362.773872" y="478.29312" style="stroke: #000000; stroke-width: 0.8"/>
      </g>
     </g>
     <g id="text_5">
      <!-- 4000 -->
      <g transform="translate(350.048872 492.891558) scale(0.1 -0.1)">
       <defs>
        <path id="DejaVuSans-34" d="M 2419 4116 
L 825 1625 
L 2419 1625 
L 2419 4116 
z
M 2253 4666 
L 3047 4666 
L 3047 1625 
L 3713 1625 
L 3713 1100 
L 3047 1100 
L 3047 0 
L 2419 0 
L 2419 1100 
L 313 1100 
L 313 1709 
L 2253 4666 
z
" transform="scale(0.015625)"/>
       </defs>
       <use xlink:href="#DejaVuSans-34"/>
       <use xlink:href="#DejaVuSans-30" transform="translate(63.623047 0)"/>
       <use xlink:href="#DejaVuSans-30" transform="translate(127.246094 0)"/>
       <use xlink:href="#DejaVuSans-30" transform="translate(190.869141 0)"/>
      </g>
     </g>
    </g>
    <g id="xtick_6">
     <g id="line2d_11">
      <path d="M 431.363667 478.29312 
L 431.363667 64.48896 
" clip-path="url(#p14db9aeb4b)" style="fill: none; stroke: #b0b0b0; stroke-width: 0.8; stroke-linecap: square"/>
     </g>
     <g id="line2d_12">
      <g>
       <use xlink:href="#m49d38c245a" x="431.363667" y="478.29312" style="stroke: #000000; stroke-width: 0.8"/>
      </g>
     </g>
     <g id="text_6">
      <!-- 5000 -->
      <g transform="translate(418.638667 492.891558) scale(0.1 -0.1)">
       <defs>
        <path id="DejaVuSans-35" d="M 691 4666 
L 3169 4666 
L 3169 4134 
L 1269 4134 
L 1269 2991 
Q 1406 3038 1543 3061 
Q 1681 3084 1819 3084 
Q 2600 3084 3056 2656 
Q 3513 2228 3513 1497 
Q 3513 744 3044 326 
Q 2575 -91 1722 -91 
Q 1428 -91 1123 -41 
Q 819 9 494 109 
L 494 744 
Q 775 591 1075 516 
Q 1375 441 1709 441 
Q 2250 441 2565 725 
Q 2881 1009 2881 1497 
Q 2881 1984 2565 2268 
Q 2250 2553 1709 2553 
Q 1456 2553 1204 2497 
Q 953 2441 691 2322 
L 691 4666 
z
" transform="scale(0.015625)"/>
       </defs>
       <use xlink:href="#DejaVuSans-35"/>
       <use xlink:href="#DejaVuSans-30" transform="translate(63.623047 0)"/>
       <use xlink:href="#DejaVuSans-30" transform="translate(127.246094 0)"/>
       <use xlink:href="#DejaVuSans-30" transform="translate(190.869141 0)"/>
      </g>
     </g>
    </g>
    <g id="text_7">
     <!-- Tiempo [s] -->
     <g transform="translate(256.2391 506.569682) scale(0.1 -0.1)">
      <defs>
       <path id="DejaVuSans-54" d="M -19 4666 
L 3928 4666 
L 3928 4134 
L 2272 4134 
L 2272 0 
L 1638 0 
L 1638 4134 
L -19 4134 
L -19 4666 
z
" transform="scale(0.015625)"/>
       <path id="DejaVuSans-69" d="M 603 3500 
L 1178 3500 
L 1178 0 
L 603 0 
L 603 3500 
z
M 603 4863 
L 1178 4863 
L 1178 4134 
L 603 4134 
L 603 4863 
z
" transform="scale(0.015625)"/>
       <path id="DejaVuSans-65" d="M 3597 1894 
L 3597 1613 
L 953 1613 
Q 991 1019 1311 708 
Q 1631 397 2203 397 
Q 2534 397 2845 478 
Q 3156 559 3463 722 
L 3463 178 
Q 3153 47 2828 -22 
Q 2503 -91 2169 -91 
Q 1331 -91 842 396 
Q 353 884 353 1716 
Q 353 2575 817 3079 
Q 1281 3584 2069 3584 
Q 2775 3584 3186 3129 
Q 3597 2675 3597 1894 
z
M 3022 2063 
Q 3016 2534 2758 2815 
Q 2500 3097 2075 3097 
Q 1594 3097 1305 2825 
Q 1016 2553 972 2059 
L 3022 2063 
z
" transform="scale(0.015625)"/>
       <path id="DejaVuSans-6d" d="M 3328 2828 
Q 3544 3216 3844 3400 
Q 4144 3584 4550 3584 
Q 5097 3584 5394 3201 
Q 5691 2819 5691 2113 
L 5691 0 
L 5113 0 
L 5113 2094 
Q 5113 2597 4934 2840 
Q 4756 3084 4391 3084 
Q 3944 3084 3684 2787 
Q 3425 2491 3425 1978 
L 3425 0 
L 2847 0 
L 2847 2094 
Q 2847 2600 2669 2842 
Q 2491 3084 2119 3084 
Q 1678 3084 1418 2786 
Q 1159 2488 1159 1978 
L 1159 0 
L 581 0 
L 581 3500 
L 1159 3500 
L 1159 2956 
Q 1356 3278 1631 3431 
Q 1906 3584 2284 3584 
Q 2666 3584 2933 3390 
Q 3200 3197 3328 2828 
z
" transform="scale(0.015625)"/>
       <path id="DejaVuSans-70" d="M 1159 525 
L 1159 -1331 
L 581 -1331 
L 581 3500 
L 1159 3500 
L 1159 2969 
Q 1341 3281 1617 3432 
Q 1894 3584 2278 3584 
Q 2916 3584 3314 3078 
Q 3713 2572 3713 1747 
Q 3713 922 3314 415 
Q 2916 -91 2278 -91 
Q 1894 -91 1617 61 
Q 1341 213 1159 525 
z
M 3116 1747 
Q 3116 2381 2855 2742 
Q 2594 3103 2138 3103 
Q 1681 3103 1420 2742 
Q 1159 2381 1159 1747 
Q 1159 1113 1420 752 
Q 1681 391 2138 391 
Q 2594 391 2855 752 
Q 3116 1113 3116 1747 
z
" transform="scale(0.015625)"/>
       <path id="DejaVuSans-6f" d="M 1959 3097 
Q 1497 3097 1228 2736 
Q 959 2375 959 1747 
Q 959 1119 1226 758 
Q 1494 397 1959 397 
Q 2419 397 2687 759 
Q 2956 1122 2956 1747 
Q 2956 2369 2687 2733 
Q 2419 3097 1959 3097 
z
M 1959 3584 
Q 2709 3584 3137 3096 
Q 3566 2609 3566 1747 
Q 3566 888 3137 398 
Q 2709 -91 1959 -91 
Q 1206 -91 779 398 
Q 353 888 353 1747 
Q 353 2609 779 3096 
Q 1206 3584 1959 3584 
z
" transform="scale(0.015625)"/>
       <path id="DejaVuSans-20" transform="scale(0.015625)"/>
       <path id="DejaVuSans-5b" d="M 550 4863 
L 1875 4863 
L 1875 4416 
L 1125 4416 
L 1125 -397 
L 1875 -397 
L 1875 -844 
L 550 -844 
L 550 4863 
z
" transform="scale(0.015625)"/>
       <path id="DejaVuSans-73" d="M 2834 3397 
L 2834 2853 
Q 2591 2978 2328 3040 
Q 2066 3103 1784 3103 
Q 1356 3103 1142 2972 
Q 928 2841 928 2578 
Q 928 2378 1081 2264 
Q 1234 2150 1697 2047 
L 1894 2003 
Q 2506 1872 2764 1633 
Q 3022 1394 3022 966 
Q 3022 478 2636 193 
Q 2250 -91 1575 -91 
Q 1294 -91 989 -36 
Q 684 19 347 128 
L 347 722 
Q 666 556 975 473 
Q 1284 391 1588 391 
Q 1994 391 2212 530 
Q 2431 669 2431 922 
Q 2431 1156 2273 1281 
Q 2116 1406 1581 1522 
L 1381 1569 
Q 847 1681 609 1914 
Q 372 2147 372 2553 
Q 372 3047 722 3315 
Q 1072 3584 1716 3584 
Q 2034 3584 2315 3537 
Q 2597 3491 2834 3397 
z
" transform="scale(0.015625)"/>
       <path id="DejaVuSans-5d" d="M 1947 4863 
L 1947 -844 
L 622 -844 
L 622 -397 
L 1369 -397 
L 1369 4416 
L 622 4416 
L 622 4863 
L 1947 4863 
z
" transform="scale(0.015625)"/>
      </defs>
      <use xlink:href="#DejaVuSans-54"/>
      <use xlink:href="#DejaVuSans-69" transform="translate(57.958984 0)"/>
      <use xlink:href="#DejaVuSans-65" transform="translate(85.742188 0)"/>
      <use xlink:href="#DejaVuSans-6d" transform="translate(147.265625 0)"/>
      <use xlink:href="#DejaVuSans-70" transform="translate(244.677734 0)"/>
      <use xlink:href="#DejaVuSans-6f" transform="translate(308.154297 0)"/>
      <use xlink:href="#DejaVuSans-20" transform="translate(369.335938 0)"/>
      <use xlink:href="#DejaVuSans-5b" transform="translate(401.123047 0)"/>
      <use xlink:href="#DejaVuSans-73" transform="translate(440.136719 0)"/>
      <use xlink:href="#DejaVuSans-5d" transform="translate(492.236328 0)"/>
     </g>
    </g>
   </g>
   <g id="matplotlib.axis_2">
    <g id="ytick_1">
     <g id="line2d_13">
      <path d="M 68.976 438.659271 
L 496.6272 438.659271 
" clip-path="url(#p14db9aeb4b)" style="fill: none; stroke: #b0b0b0; stroke-width: 0.8; stroke-linecap: square"/>
     </g>
     <g id="line2d_14">
      <defs>
       <path id="mcc0c2b1d93" d="M 0 0 
L -3.5 0 
" style="stroke: #000000; stroke-width: 0.8"/>
      </defs>
      <g>
       <use xlink:href="#mcc0c2b1d93" x="68.976" y="438.659271" style="stroke: #000000; stroke-width: 0.8"/>
      </g>
     </g>
     <g id="text_8">
      <!-- −0.75 -->
      <g transform="translate(31.330687 442.45849) scale(0.1 -0.1)">
       <defs>
        <path id="DejaVuSans-2212" d="M 678 2272 
L 4684 2272 
L 4684 1741 
L 678 1741 
L 678 2272 
z
" transform="scale(0.015625)"/>
        <path id="DejaVuSans-2e" d="M 684 794 
L 1344 794 
L 1344 0 
L 684 0 
L 684 794 
z
" transform="scale(0.015625)"/>
        <path id="DejaVuSans-37" d="M 525 4666 
L 3525 4666 
L 3525 4397 
L 1831 0 
L 1172 0 
L 2766 4134 
L 525 4134 
L 525 4666 
z
" transform="scale(0.015625)"/>
       </defs>
       <use xlink:href="#DejaVuSans-2212"/>
       <use xlink:href="#DejaVuSans-30" transform="translate(83.789062 0)"/>
       <use xlink:href="#DejaVuSans-2e" transform="translate(147.412109 0)"/>
       <use xlink:href="#DejaVuSans-37" transform="translate(179.199219 0)"/>
       <use xlink:href="#DejaVuSans-35" transform="translate(242.822266 0)"/>
      </g>
     </g>
    </g>
    <g id="ytick_2">
     <g id="line2d_15">
      <path d="M 68.976 387.893409 
L 496.6272 387.893409 
" clip-path="url(#p14db9aeb4b)" style="fill: none; stroke: #b0b0b0; stroke-width: 0.8; stroke-linecap: square"/>
     </g>
     <g id="line2d_16">
      <g>
       <use xlink:href="#mcc0c2b1d93" x="68.976" y="387.893409" style="stroke: #000000; stroke-width: 0.8"/>
      </g>
     </g>
     <g id="text_9">
      <!-- −0.50 -->
      <g transform="translate(31.330687 391.692628) scale(0.1 -0.1)">
       <use xlink:href="#DejaVuSans-2212"/>
       <use xlink:href="#DejaVuSans-30" transform="translate(83.789062 0)"/>
       <use xlink:href="#DejaVuSans-2e" transform="translate(147.412109 0)"/>
       <use xlink:href="#DejaVuSans-35" transform="translate(179.199219 0)"/>
       <use xlink:href="#DejaVuSans-30" transform="translate(242.822266 0)"/>
      </g>
     </g>
    </g>
    <g id="ytick_3">
     <g id="line2d_17">
      <path d="M 68.976 337.127548 
L 496.6272 337.127548 
" clip-path="url(#p14db9aeb4b)" style="fill: none; stroke: #b0b0b0; stroke-width: 0.8; stroke-linecap: square"/>
     </g>
     <g id="line2d_18">
      <g>
       <use xlink:href="#mcc0c2b1d93" x="68.976" y="337.127548" style="stroke: #000000; stroke-width: 0.8"/>
      </g>
     </g>
     <g id="text_10">
      <!-- −0.25 -->
      <g transform="translate(31.330687 340.926767) scale(0.1 -0.1)">
       <use xlink:href="#DejaVuSans-2212"/>
       <use xlink:href="#DejaVuSans-30" transform="translate(83.789062 0)"/>
       <use xlink:href="#DejaVuSans-2e" transform="translate(147.412109 0)"/>
       <use xlink:href="#DejaVuSans-32" transform="translate(179.199219 0)"/>
       <use xlink:href="#DejaVuSans-35" transform="translate(242.822266 0)"/>
      </g>
     </g>
    </g>
    <g id="ytick_4">
     <g id="line2d_19">
      <path d="M 68.976 286.361686 
L 496.6272 286.361686 
" clip-path="url(#p14db9aeb4b)" style="fill: none; stroke: #b0b0b0; stroke-width: 0.8; stroke-linecap: square"/>
     </g>
     <g id="line2d_20">
      <g>
       <use xlink:href="#mcc0c2b1d93" x="68.976" y="286.361686" style="stroke: #000000; stroke-width: 0.8"/>
      </g>
     </g>
     <g id="text_11">
      <!-- 0.00 -->
      <g transform="translate(39.710375 290.160905) scale(0.1 -0.1)">
       <use xlink:href="#DejaVuSans-30"/>
       <use xlink:href="#DejaVuSans-2e" transform="translate(63.623047 0)"/>
       <use xlink:href="#DejaVuSans-30" transform="translate(95.410156 0)"/>
       <use xlink:href="#DejaVuSans-30" transform="translate(159.033203 0)"/>
      </g>
     </g>
    </g>
    <g id="ytick_5">
     <g id="line2d_21">
      <path d="M 68.976 235.595825 
L 496.6272 235.595825 
" clip-path="url(#p14db9aeb4b)" style="fill: none; stroke: #b0b0b0; stroke-width: 0.8; stroke-linecap: square"/>
     </g>
     <g id="line2d_22">
      <g>
       <use xlink:href="#mcc0c2b1d93" x="68.976" y="235.595825" style="stroke: #000000; stroke-width: 0.8"/>
      </g>
     </g>
     <g id="text_12">
      <!-- 0.25 -->
      <g transform="translate(39.710375 239.395043) scale(0.1 -0.1)">
       <use xlink:href="#DejaVuSans-30"/>
       <use xlink:href="#DejaVuSans-2e" transform="translate(63.623047 0)"/>
       <use xlink:href="#DejaVuSans-32" transform="translate(95.410156 0)"/>
       <use xlink:href="#DejaVuSans-35" transform="translate(159.033203 0)"/>
      </g>
     </g>
    </g>
    <g id="ytick_6">
     <g id="line2d_23">
      <path d="M 68.976 184.829963 
L 496.6272 184.829963 
" clip-path="url(#p14db9aeb4b)" style="fill: none; stroke: #b0b0b0; stroke-width: 0.8; stroke-linecap: square"/>
     </g>
     <g id="line2d_24">
      <g>
       <use xlink:href="#mcc0c2b1d93" x="68.976" y="184.829963" style="stroke: #000000; stroke-width: 0.8"/>
      </g>
     </g>
     <g id="text_13">
      <!-- 0.50 -->
      <g transform="translate(39.710375 188.629182) scale(0.1 -0.1)">
       <use xlink:href="#DejaVuSans-30"/>
       <use xlink:href="#DejaVuSans-2e" transform="translate(63.623047 0)"/>
       <use xlink:href="#DejaVuSans-35" transform="translate(95.410156 0)"/>
       <use xlink:href="#DejaVuSans-30" transform="translate(159.033203 0)"/>
      </g>
     </g>
    </g>
    <g id="ytick_7">
     <g id="line2d_25">
      <path d="M 68.976 134.064102 
L 496.6272 134.064102 
" clip-path="url(#p14db9aeb4b)" style="fill: none; stroke: #b0b0b0; stroke-width: 0.8; stroke-linecap: square"/>
     </g>
     <g id="line2d_26">
      <g>
       <use xlink:href="#mcc0c2b1d93" x="68.976" y="134.064102" style="stroke: #000000; stroke-width: 0.8"/>
      </g>
     </g>
     <g id="text_14">
      <!-- 0.75 -->
      <g transform="translate(39.710375 137.86332) scale(0.1 -0.1)">
       <use xlink:href="#DejaVuSans-30"/>
       <use xlink:href="#DejaVuSans-2e" transform="translate(63.623047 0)"/>
       <use xlink:href="#DejaVuSans-37" transform="translate(95.410156 0)"/>
       <use xlink:href="#DejaVuSans-35" transform="translate(159.033203 0)"/>
      </g>
     </g>
    </g>
    <g id="ytick_8">
     <g id="line2d_27">
      <path d="M 68.976 83.29824 
L 496.6272 83.29824 
" clip-path="url(#p14db9aeb4b)" style="fill: none; stroke: #b0b0b0; stroke-width: 0.8; stroke-linecap: square"/>
     </g>
     <g id="line2d_28">
      <g>
       <use xlink:href="#mcc0c2b1d93" x="68.976" y="83.29824" style="stroke: #000000; stroke-width: 0.8"/>
      </g>
     </g>
     <g id="text_15">
      <!-- 1.00 -->
      <g transform="translate(39.710375 87.097459) scale(0.1 -0.1)">
       <use xlink:href="#DejaVuSans-31"/>
       <use xlink:href="#DejaVuSans-2e" transform="translate(63.623047 0)"/>
       <use xlink:href="#DejaVuSans-30" transform="translate(95.410156 0)"/>
       <use xlink:href="#DejaVuSans-30" transform="translate(159.033203 0)"/>
      </g>
     </g>
    </g>
    <g id="text_16">
     <!-- Quaternion -->
     <g transform="translate(25.251 299.350415) rotate(-90) scale(0.1 -0.1)">
      <defs>
       <path id="DejaVuSans-51" d="M 2522 4238 
Q 1834 4238 1429 3725 
Q 1025 3213 1025 2328 
Q 1025 1447 1429 934 
Q 1834 422 2522 422 
Q 3209 422 3611 934 
Q 4013 1447 4013 2328 
Q 4013 3213 3611 3725 
Q 3209 4238 2522 4238 
z
M 3406 84 
L 4238 -825 
L 3475 -825 
L 2784 -78 
Q 2681 -84 2626 -87 
Q 2572 -91 2522 -91 
Q 1538 -91 948 567 
Q 359 1225 359 2328 
Q 359 3434 948 4092 
Q 1538 4750 2522 4750 
Q 3503 4750 4090 4092 
Q 4678 3434 4678 2328 
Q 4678 1516 4351 937 
Q 4025 359 3406 84 
z
" transform="scale(0.015625)"/>
       <path id="DejaVuSans-75" d="M 544 1381 
L 544 3500 
L 1119 3500 
L 1119 1403 
Q 1119 906 1312 657 
Q 1506 409 1894 409 
Q 2359 409 2629 706 
Q 2900 1003 2900 1516 
L 2900 3500 
L 3475 3500 
L 3475 0 
L 2900 0 
L 2900 538 
Q 2691 219 2414 64 
Q 2138 -91 1772 -91 
Q 1169 -91 856 284 
Q 544 659 544 1381 
z
M 1991 3584 
L 1991 3584 
z
" transform="scale(0.015625)"/>
       <path id="DejaVuSans-61" d="M 2194 1759 
Q 1497 1759 1228 1600 
Q 959 1441 959 1056 
Q 959 750 1161 570 
Q 1363 391 1709 391 
Q 2188 391 2477 730 
Q 2766 1069 2766 1631 
L 2766 1759 
L 2194 1759 
z
M 3341 1997 
L 3341 0 
L 2766 0 
L 2766 531 
Q 2569 213 2275 61 
Q 1981 -91 1556 -91 
Q 1019 -91 701 211 
Q 384 513 384 1019 
Q 384 1609 779 1909 
Q 1175 2209 1959 2209 
L 2766 2209 
L 2766 2266 
Q 2766 2663 2505 2880 
Q 2244 3097 1772 3097 
Q 1472 3097 1187 3025 
Q 903 2953 641 2809 
L 641 3341 
Q 956 3463 1253 3523 
Q 1550 3584 1831 3584 
Q 2591 3584 2966 3190 
Q 3341 2797 3341 1997 
z
" transform="scale(0.015625)"/>
       <path id="DejaVuSans-74" d="M 1172 4494 
L 1172 3500 
L 2356 3500 
L 2356 3053 
L 1172 3053 
L 1172 1153 
Q 1172 725 1289 603 
Q 1406 481 1766 481 
L 2356 481 
L 2356 0 
L 1766 0 
Q 1100 0 847 248 
Q 594 497 594 1153 
L 594 3053 
L 172 3053 
L 172 3500 
L 594 3500 
L 594 4494 
L 1172 4494 
z
" transform="scale(0.015625)"/>
       <path id="DejaVuSans-72" d="M 2631 2963 
Q 2534 3019 2420 3045 
Q 2306 3072 2169 3072 
Q 1681 3072 1420 2755 
Q 1159 2438 1159 1844 
L 1159 0 
L 581 0 
L 581 3500 
L 1159 3500 
L 1159 2956 
Q 1341 3275 1631 3429 
Q 1922 3584 2338 3584 
Q 2397 3584 2469 3576 
Q 2541 3569 2628 3553 
L 2631 2963 
z
" transform="scale(0.015625)"/>
       <path id="DejaVuSans-6e" d="M 3513 2113 
L 3513 0 
L 2938 0 
L 2938 2094 
Q 2938 2591 2744 2837 
Q 2550 3084 2163 3084 
Q 1697 3084 1428 2787 
Q 1159 2491 1159 1978 
L 1159 0 
L 581 0 
L 581 3500 
L 1159 3500 
L 1159 2956 
Q 1366 3272 1645 3428 
Q 1925 3584 2291 3584 
Q 2894 3584 3203 3211 
Q 3513 2838 3513 2113 
z
" transform="scale(0.015625)"/>
      </defs>
      <use xlink:href="#DejaVuSans-51"/>
      <use xlink:href="#DejaVuSans-75" transform="translate(78.710938 0)"/>
      <use xlink:href="#DejaVuSans-61" transform="translate(142.089844 0)"/>
      <use xlink:href="#DejaVuSans-74" transform="translate(203.369141 0)"/>
      <use xlink:href="#DejaVuSans-65" transform="translate(242.578125 0)"/>
      <use xlink:href="#DejaVuSans-72" transform="translate(304.101562 0)"/>
      <use xlink:href="#DejaVuSans-6e" transform="translate(343.464844 0)"/>
      <use xlink:href="#DejaVuSans-69" transform="translate(406.84375 0)"/>
      <use xlink:href="#DejaVuSans-6f" transform="translate(434.626953 0)"/>
      <use xlink:href="#DejaVuSans-6e" transform="translate(495.808594 0)"/>
     </g>
    </g>
   </g>
   <g id="line2d_29">
    <path d="M 88.414691 286.361686 
L 111.289388 323.683298 
L 123.429781 343.054216 
L 133.553635 358.798464 
L 142.545757 372.379607 
L 150.776533 384.414655 
L 157.484615 393.86047 
L 158.341987 394.706986 
L 159.110193 395.169996 
L 159.823527 395.348766 
L 160.509425 395.292174 
L 161.202182 395.007755 
L 161.936092 394.457966 
L 162.738593 393.565723 
L 163.623401 392.232496 
L 164.604235 390.331665 
L 165.687954 387.723771 
L 166.888276 384.229043 
L 168.212059 379.661769 
L 169.67988 373.76447 
L 171.305458 366.276426 
L 173.123088 356.816468 
L 175.187641 344.847256 
L 177.608861 329.44215 
L 180.674824 308.407978 
L 191.285666 234.324056 
L 193.67945 219.883115 
L 195.730284 208.819604 
L 197.534196 200.258272 
L 199.146056 193.639646 
L 200.60016 188.569234 
L 201.910225 184.773039 
L 203.08997 182.005328 
L 204.146252 180.065079 
L 205.092792 178.766277 
L 205.943305 177.958303 
L 206.704652 177.525555 
L 207.411127 177.370511 
L 208.097025 177.447358 
L 208.79664 177.756358 
L 209.53741 178.336647 
L 210.34677 179.266648 
L 211.238437 180.645903 
L 212.22613 182.602059 
L 213.323567 185.293703 
L 214.530747 188.86794 
L 215.868248 193.55153 
L 217.349788 199.584122 
L 218.995943 207.259589 
L 220.83415 216.93179 
L 222.926138 229.176328 
L 225.388512 244.968683 
L 228.55736 266.839928 
L 238.338265 335.380074 
L 240.807498 350.547831 
L 242.906346 362.113522 
L 244.751411 371.085092 
L 246.397566 378.030612 
L 247.879106 383.356519 
L 249.209748 387.348908 
L 250.410069 390.281171 
L 251.486929 392.355813 
L 252.454045 393.761694 
L 253.318277 394.646891 
L 254.093341 395.140308 
L 254.806675 395.342167 
L 255.492573 395.307792 
L 256.18533 395.045779 
L 256.912382 394.525737 
L 257.708023 393.670444 
L 258.585973 392.382389 
L 259.553089 390.550508 
L 260.62309 388.028105 
L 261.809693 384.636917 
L 263.119758 380.191921 
L 264.567003 374.465452 
L 266.172004 367.174977 
L 267.969057 357.937972 
L 270.006174 346.254638 
L 272.379381 331.291996 
L 275.349319 311.058639 
L 281.021695 270.463336 
L 284.855864 243.933748 
L 287.517148 227.017768 
L 289.72574 214.349308 
L 291.653113 204.537314 
L 293.360999 196.946555 
L 294.89741 191.088183 
L 296.282924 186.645659 
L 297.531259 183.357889 
L 298.649272 181.00783 
L 299.650683 179.39087 
L 300.54921 178.338706 
L 301.358569 177.717018 
L 302.09248 177.422038 
L 302.785237 177.378785 
L 303.471135 177.56108 
L 304.184469 177.987879 
L 304.952674 178.716901 
L 305.796329 179.837179 
L 306.72915 181.46126 
L 307.764856 183.731275 
L 308.910306 186.801306 
L 310.179217 190.867475 
L 311.578449 196.128429 
L 313.128578 202.855309 
L 314.857041 211.385563 
L 316.804991 222.164701 
L 319.047877 235.880391 
L 321.764033 253.942826 
L 325.659934 281.515682 
L 331.791861 324.845571 
L 334.576607 342.860957 
L 336.853788 356.199455 
L 338.829174 366.500769 
L 340.578214 374.487855 
L 342.142061 380.635696 
L 343.555011 385.326369 
L 344.823922 388.804625 
L 345.969372 391.32642 
L 346.99136 393.069026 
L 347.910463 394.220613 
L 348.733541 394.91417 
L 349.481169 395.265749 
L 350.180785 395.353892 
L 350.866683 395.214049 
L 351.573158 394.836117 
L 352.334505 394.164065 
L 353.164441 393.120557 
L 354.083545 391.590235 
L 355.098674 389.449024 
L 356.223546 386.534835 
L 357.465022 382.676645 
L 358.836817 377.660704 
L 360.359511 371.216435 
L 362.053679 363.040126 
L 363.953616 352.733352 
L 366.134772 339.622606 
L 368.741184 322.530958 
L 372.273558 297.758936 
L 379.770423 244.842073 
L 382.459143 227.679066 
L 384.688311 214.82969 
L 386.622544 204.927541 
L 388.344147 197.227692 
L 389.887418 191.302987 
L 391.272932 186.824376 
L 392.521266 183.502799 
L 393.646139 181.108771 
L 394.654409 179.456947 
L 395.559794 178.378036 
L 396.369153 177.740798 
L 397.109923 177.429977 
L 397.80268 177.375599 
L 398.488578 177.546886 
L 399.201912 177.962267 
L 399.970118 178.679058 
L 400.813772 179.786016 
L 401.746593 181.395558 
L 402.782299 183.649724 
L 403.927749 186.702676 
L 405.189801 190.726872 
L 406.589033 195.964749 
L 408.132303 202.636056 
L 409.853907 211.10209 
L 411.794998 221.809127 
L 414.031026 235.446573 
L 416.726605 253.33396 
L 420.553915 280.384591 
L 426.891612 325.17287 
L 429.669499 343.117823 
L 431.939821 356.392134 
L 433.908348 366.637401 
L 435.650529 374.57743 
L 437.214376 380.712074 
L 438.620467 385.369463 
L 439.889378 388.839734 
L 441.027969 391.340829 
L 442.049957 393.079922 
L 442.96906 394.228306 
L 443.792138 394.91897 
L 444.539767 395.267909 
L 445.239382 395.353578 
L 445.92528 395.211308 
L 446.631755 394.830883 
L 447.393102 394.156158 
L 448.223039 393.109758 
L 449.142142 391.576272 
L 450.157271 389.431627 
L 451.282143 386.513725 
L 452.530478 382.628409 
L 453.909133 377.577389 
L 455.431826 371.120723 
L 457.125994 362.931763 
L 459.03279 352.573177 
L 461.220805 339.403293 
L 463.834076 322.247231 
L 467.387027 297.312423 
L 474.774148 245.158312 
L 477.188509 229.645986 
L 477.188509 229.645986 
" clip-path="url(#p14db9aeb4b)" style="fill: none; stroke: #1f77b4; stroke-width: 1.5; stroke-linecap: square"/>
   </g>
   <g id="line2d_30">
    <path d="M 88.414691 286.361686 
L 157.052499 286.441866 
L 157.292563 288.093871 
L 162.42308 323.297633 
L 165.228403 341.009201 
L 167.519302 354.108622 
L 169.501547 364.201783 
L 171.257446 372.032743 
L 172.828152 378.063676 
L 174.241102 382.646645 
L 175.516872 386.064564 
L 176.662321 388.530165 
L 177.691168 390.246008 
L 178.617131 391.379775 
L 179.447067 392.061797 
L 180.201555 392.405855 
L 180.90803 392.488944 
L 181.600787 392.345702 
L 182.314121 391.966 
L 183.082326 391.294579 
L 183.919122 390.255445 
L 184.845084 388.735339 
L 185.873931 386.596928 
L 187.005663 383.709841 
L 188.260856 379.871661 
L 189.64637 374.889122 
L 191.182781 368.498219 
L 192.890667 360.403746 
L 194.811181 350.181043 
L 197.012914 337.208316 
L 199.66048 320.211172 
L 203.316316 295.155428 
L 210.271321 247.312205 
L 213.008054 230.193989 
L 215.257799 217.471718 
L 217.212608 207.642956 
L 218.94793 200.012909 
L 220.504919 194.130372 
L 221.90415 189.675073 
L 223.166203 186.364633 
L 224.297934 183.986992 
L 225.319922 182.331689 
L 226.232166 181.254849 
L 227.055244 180.611078 
L 227.802873 180.297537 
L 228.502489 180.238709 
L 229.195246 180.404065 
L 229.915438 180.81149 
L 230.690503 181.517125 
L 231.541017 182.607991 
L 232.480697 184.194277 
L 233.516403 186.398915 
L 234.661852 189.3821 
L 235.930763 193.334819 
L 237.329995 198.450594 
L 238.880125 204.993517 
L 240.608587 213.292296 
L 242.556538 223.78093 
L 244.799424 237.12931 
L 247.51558 254.711049 
L 251.397762 281.459255 
L 257.563985 323.887182 
L 260.348731 341.424563 
L 262.625912 354.407572 
L 264.601298 364.43307 
L 266.350338 372.205194 
L 267.914185 378.186565 
L 269.327135 382.749274 
L 270.596046 386.131729 
L 271.741496 388.583169 
L 272.770342 390.286032 
L 273.689446 391.401089 
L 274.519382 392.075027 
L 275.27387 392.411702 
L 275.980345 392.487864 
L 276.673102 392.337831 
L 277.386436 391.951155 
L 278.154641 391.27226 
L 278.998296 390.215148 
L 279.931117 388.670569 
L 280.959964 386.516279 
L 282.098555 383.59288 
L 283.353748 379.732863 
L 284.746121 374.700675 
L 286.282532 368.281948 
L 287.997277 360.124584 
L 289.92465 349.831275 
L 292.140101 336.739549 
L 294.808244 319.568201 
L 298.525811 294.048035 
L 305.240752 247.845967 
L 307.991202 230.599432 
L 310.254666 217.761942 
L 312.216334 207.86657 
L 313.958514 200.178748 
L 315.515503 194.271557 
L 316.921594 189.77287 
L 318.183646 186.444138 
L 319.322236 184.036841 
L 320.344224 182.369156 
L 321.256469 181.281116 
L 322.079546 180.627157 
L 322.827175 180.30432 
L 323.53365 180.237239 
L 324.226407 180.396172 
L 324.9466 180.796938 
L 325.721664 181.495443 
L 326.565319 182.5685 
L 327.49814 184.13049 
L 328.533846 186.319691 
L 329.679296 189.28624 
L 330.941348 193.198117 
L 332.34058 198.29141 
L 333.88385 204.780237 
L 335.605454 213.01649 
L 337.546545 223.43491 
L 339.775713 236.664554 
L 342.471292 254.072497 
L 346.284885 280.309944 
L 352.670595 324.250766 
L 355.441623 341.674598 
L 357.711945 354.595104 
L 359.680472 364.566034 
L 361.422653 372.292351 
L 362.9865 378.260867 
L 364.392591 382.791187 
L 365.661502 386.165865 
L 366.806952 388.610077 
L 367.835799 390.306315 
L 368.754902 391.415373 
L 369.577979 392.079627 
L 370.332467 392.413707 
L 371.038942 392.487435 
L 371.731699 392.335017 
L 372.451892 391.941007 
L 373.220098 391.257062 
L 374.063752 390.194452 
L 374.996573 388.643868 
L 376.02542 386.483072 
L 377.164011 383.552655 
L 378.426063 379.662242 
L 379.818436 374.618361 
L 381.361706 368.15689 
L 383.076451 359.983187 
L 385.010683 349.635063 
L 387.232993 336.481713 
L 389.907995 319.2443 
L 393.659856 293.46801 
L 400.251336 248.111401 
L 403.008646 230.800869 
L 405.272109 217.942632 
L 407.233777 208.025995 
L 408.975958 200.31703 
L 410.539805 194.365382 
L 411.945896 189.85112 
L 413.214807 186.491537 
L 414.353398 184.074173 
L 415.375386 182.397269 
L 416.294489 181.294091 
L 417.117566 180.635147 
L 417.865195 180.307761 
L 418.57167 180.236374 
L 419.264427 180.391086 
L 419.98462 180.787475 
L 420.752826 181.473944 
L 421.59648 182.539304 
L 422.529301 184.09289 
L 423.558148 186.256937 
L 424.696739 189.190862 
L 425.958791 193.08503 
L 427.351164 198.13286 
L 428.894434 204.59843 
L 430.609179 212.776296 
L 432.543411 223.128558 
L 434.765721 236.285847 
L 437.447582 253.572495 
L 441.206303 279.401404 
L 447.770346 324.568953 
L 450.534515 341.924212 
L 452.797978 354.782273 
L 454.759646 364.69873 
L 456.501827 372.407517 
L 458.065674 378.35899 
L 459.471765 382.873087 
L 460.740676 386.232513 
L 461.879267 388.649734 
L 462.901255 390.326506 
L 463.820358 391.429565 
L 464.643436 392.0884 
L 465.391064 392.415687 
L 466.097539 392.48698 
L 466.790296 392.332177 
L 467.510489 391.935693 
L 468.278695 391.249123 
L 469.122349 390.183653 
L 470.05517 388.629947 
L 471.084017 386.46577 
L 472.222608 383.531704 
L 473.48466 379.637386 
L 474.877033 374.589398 
L 476.420303 368.123665 
L 477.188509 364.583692 
L 477.188509 364.583692 
" clip-path="url(#p14db9aeb4b)" style="fill: none; stroke: #ff7f0e; stroke-width: 1.5; stroke-linecap: square"/>
   </g>
   <g id="line2d_31">
    <path d="M 88.414691 286.361686 
L 157.04564 286.275363 
L 157.203397 284.575002 
L 162.409362 226.878711 
L 165.207826 198.339729 
L 167.491866 177.231817 
L 169.467252 160.962624 
L 171.216292 148.331769 
L 172.780139 138.594429 
L 174.179371 131.216671 
L 175.441423 125.69834 
L 176.566296 121.720763 
L 177.567707 118.944756 
L 178.452515 117.101899 
L 179.22758 115.963065 
L 179.906619 115.332769 
L 180.50335 115.063268 
L 181.052068 115.050649 
L 181.600787 115.263391 
L 182.190659 115.743113 
L 182.849121 116.58494 
L 183.589891 117.916305 
L 184.426686 119.905777 
L 185.366366 122.746436 
L 186.41579 126.664204 
L 187.581817 131.917304 
L 188.878164 138.832546 
L 190.311691 147.737814 
L 191.902974 159.075989 
L 193.686309 173.44804 
L 195.702849 191.576263 
L 198.055479 214.82708 
L 200.984263 246.116547 
L 206.169651 304.431313 
L 210.312475 349.835546 
L 213.028631 377.235304 
L 215.264658 397.635287 
L 217.205749 413.391426 
L 218.927353 425.625694 
L 220.470624 435.06541 
L 221.856137 442.225472 
L 223.097613 447.532886 
L 224.208767 451.364075 
L 225.203319 454.039104 
L 226.07441 455.787229 
L 226.842616 456.863004 
L 227.507937 457.439562 
L 228.097809 457.674059 
L 228.646527 457.658386 
L 229.202105 457.412931 
L 229.798836 456.892366 
L 230.464157 455.999215 
L 231.218645 454.589521 
L 232.069158 452.499006 
L 233.022556 449.531881 
L 234.085698 445.459811 
L 235.265442 440.022735 
L 236.575508 432.892164 
L 238.029611 423.694204 
L 239.641471 412.020671 
L 241.452242 397.213809 
L 243.509936 378.474957 
L 245.917438 354.417155 
L 248.962825 321.602784 
L 259.697127 203.858688 
L 262.070334 181.411575 
L 264.100592 164.234587 
L 265.890786 150.901637 
L 267.488928 140.594716 
L 268.929314 132.694896 
L 270.218802 126.801761 
L 271.37797 122.492046 
L 272.406817 119.471755 
L 273.319061 117.438813 
L 274.121561 116.157954 
L 274.821177 115.431918 
L 275.431627 115.096986 
L 275.987204 115.034524 
L 276.535922 115.199626 
L 277.112076 115.61531 
L 277.749962 116.364355 
L 278.470154 117.573179 
L 279.286373 119.405365 
L 280.198617 122.027824 
L 281.220605 125.674752 
L 282.359196 130.600223 
L 283.621248 137.089001 
L 285.02048 145.494666 
L 286.577468 156.260084 
L 288.31279 169.875437 
L 290.274458 187.100181 
L 292.537921 209.026103 
L 295.295231 238.019273 
L 299.376324 283.574964 
L 304.993828 345.92661 
L 307.792292 374.45861 
L 310.076332 395.558913 
L 312.051718 411.820283 
L 313.793899 424.397356 
L 315.357746 434.133857 
L 316.756978 441.510821 
L 318.01903 447.028405 
L 319.143903 451.005297 
L 320.145314 453.780681 
L 321.030122 455.622979 
L 321.805187 456.76132 
L 322.484226 457.391182 
L 323.080957 457.6603 
L 323.629676 457.672567 
L 324.178394 457.459473 
L 324.768266 456.979373 
L 325.426728 456.137126 
L 326.167498 454.805292 
L 327.004294 452.815295 
L 327.943974 449.974055 
L 328.993398 446.055651 
L 330.159424 440.801865 
L 331.455771 433.885889 
L 332.889298 424.979852 
L 334.480581 413.640884 
L 336.263916 399.268029 
L 338.280456 381.139021 
L 340.633086 357.88747 
L 343.56187 326.597388 
L 348.754118 268.205157 
L 352.890082 222.878808 
L 355.606238 195.479837 
L 357.842265 175.080702 
L 359.783357 159.325432 
L 361.504961 147.092023 
L 363.048231 137.65314 
L 364.433745 130.493869 
L 365.67522 125.187193 
L 366.786375 121.356683 
L 367.780927 118.682274 
L 368.652017 116.934699 
L 369.420223 115.859413 
L 370.085544 115.283281 
L 370.675416 115.049162 
L 371.224134 115.065187 
L 371.779712 115.310998 
L 372.376443 115.831946 
L 373.041764 116.725521 
L 373.796252 118.135692 
L 374.646765 120.22674 
L 375.600163 123.194453 
L 376.663305 127.267165 
L 377.84305 132.704933 
L 379.153115 139.83624 
L 380.607218 149.034975 
L 382.219079 160.709302 
L 384.029849 175.516967 
L 386.087543 194.256603 
L 388.495045 218.315129 
L 391.540432 251.13009 
L 402.267876 368.805105 
L 404.641083 391.258062 
L 406.671341 408.441103 
L 408.461534 421.780105 
L 410.059677 432.092924 
L 411.500062 439.998403 
L 412.78955 445.896837 
L 413.948718 450.21147 
L 414.984424 453.253814 
L 415.896668 455.286182 
L 416.699169 456.566531 
L 417.398785 457.29212 
L 418.009234 457.626661 
L 418.564811 457.688766 
L 419.113529 457.523313 
L 419.689684 457.10726 
L 420.327569 456.357807 
L 421.047762 455.148526 
L 421.86398 453.315827 
L 422.776225 450.692801 
L 423.798213 447.045251 
L 424.936803 442.119105 
L 426.198855 435.629605 
L 427.598087 427.223179 
L 429.155076 416.456971 
L 430.890397 402.840815 
L 432.852065 385.615277 
L 435.115529 363.688605 
L 437.872838 334.694784 
L 441.96079 289.061028 
L 447.564577 226.8605 
L 450.36304 198.323069 
L 452.64708 177.216847 
L 454.622466 160.949392 
L 456.371506 148.320265 
L 457.935354 138.584602 
L 459.334585 131.208432 
L 460.596638 125.691595 
L 461.72151 121.715389 
L 462.722921 118.940629 
L 463.60773 117.098888 
L 464.382794 115.961041 
L 465.061833 115.331613 
L 465.658565 115.062878 
L 466.207283 115.050962 
L 466.756001 115.264409 
L 467.345873 115.744886 
L 468.004336 116.587553 
L 468.745105 117.919856 
L 469.581901 119.910379 
L 470.521581 122.7522 
L 471.571005 126.67124 
L 472.737031 131.925712 
L 474.033379 138.842422 
L 475.466905 147.749228 
L 477.058188 159.088989 
L 477.188509 160.081819 
L 477.188509 160.081819 
" clip-path="url(#p14db9aeb4b)" style="fill: none; stroke: #2ca02c; stroke-width: 1.5; stroke-linecap: square"/>
   </g>
   <g id="line2d_32">
    <path d="M 88.414691 83.29824 
L 92.509502 83.409395 
L 96.611171 83.743482 
L 100.726559 84.30237 
L 104.862524 85.089168 
L 109.025924 86.108225 
L 113.22362 87.365119 
L 117.469328 88.869267 
L 121.769908 90.629809 
L 126.132219 92.657082 
L 130.56312 94.962595 
L 135.076329 97.563136 
L 139.678704 100.473606 
L 144.377105 103.709949 
L 149.17839 107.289084 
L 154.096279 111.234509 
L 157.505192 114.210409 
L 158.184231 115.205358 
L 158.952436 116.746497 
L 159.823527 119.022839 
L 160.797502 122.224449 
L 161.881221 126.585531 
L 163.088401 132.407279 
L 164.425902 139.999954 
L 165.907442 149.742194 
L 167.560456 162.152675 
L 169.41238 177.808516 
L 171.524946 197.637092 
L 174.028473 223.338742 
L 177.293348 259.330564 
L 186.299188 359.871581 
L 188.83701 385.01095 
L 190.977012 404.083571 
L 192.849513 418.854787 
L 194.516245 430.303674 
L 196.011503 439.092916 
L 197.349004 445.693839 
L 198.549325 450.559315 
L 199.626185 454.045852 
L 200.579583 456.424282 
L 201.416379 457.955662 
L 202.150289 458.866817 
L 202.788174 459.329072 
L 203.35747 459.481964 
L 203.899329 459.399782 
L 204.454906 459.085042 
L 205.065356 458.470661 
L 205.751254 457.446109 
L 206.526318 455.865322 
L 207.397409 453.55801 
L 208.378243 450.297124 
L 209.46882 445.863249 
L 210.68286 439.954006 
L 212.02722 432.258686 
L 213.515618 422.398608 
L 215.175491 409.855434 
L 217.041134 393.992602 
L 219.174276 373.867288 
L 221.70524 347.770093 
L 225.038704 310.905824 
L 233.584992 215.345277 
L 236.170828 189.523709 
L 238.338265 170.025594 
L 240.224485 154.984531 
L 241.904935 143.29599 
L 243.41391 134.299221 
L 244.765129 127.523611 
L 245.979168 122.514583 
L 247.062887 118.933345 
L 248.030003 116.462187 
L 248.880517 114.862349 
L 249.621287 113.910373 
L 250.266031 113.418251 
L 250.842185 113.244217 
L 251.384044 113.309649 
L 251.939622 113.607234 
L 252.543212 114.194563 
L 253.222251 115.182815 
L 253.990457 116.716433 
L 254.854688 118.964305 
L 255.828663 122.151797 
L 256.912382 126.497525 
L 258.119562 132.302705 
L 259.457063 139.877806 
L 260.938603 149.601698 
L 262.584758 161.938714 
L 264.436682 177.569198 
L 266.549248 197.373241 
L 269.045917 222.979452 
L 272.290214 258.716952 
L 281.405798 360.445537 
L 283.936761 385.467339 
L 286.069904 404.433237 
L 287.935546 419.111259 
L 289.595419 430.481506 
L 291.083818 439.206721 
L 292.421319 445.78834 
L 293.62164 450.635858 
L 294.691641 454.086441 
L 295.645039 456.454814 
L 296.481835 457.977265 
L 297.215745 458.880534 
L 297.853631 459.335908 
L 298.422926 459.482648 
L 298.964785 459.39461 
L 299.527222 459.068456 
L 300.137671 458.444348 
L 300.823569 457.408918 
L 301.598633 455.815933 
L 302.476583 453.474583 
L 303.457417 450.193821 
L 304.554854 445.707693 
L 305.768893 439.769494 
L 307.120112 432.001082 
L 308.615369 422.054024 
L 310.282101 409.409939 
L 312.154603 393.433245 
L 314.294604 373.183448 
L 316.839286 346.882384 
L 320.207045 309.577712 
L 328.526987 216.48652 
L 331.133399 190.365791 
L 333.307696 170.719997 
L 335.207633 155.492781 
L 336.894942 143.691276 
L 338.403917 134.635024 
L 339.761995 127.771803 
L 340.982894 122.690709 
L 342.073472 119.052075 
L 343.040588 116.55199 
L 343.891101 114.926407 
L 344.63873 113.944743 
L 345.290333 113.432489 
L 345.866487 113.246752 
L 346.408347 113.301173 
L 346.963924 113.58748 
L 347.567514 114.162587 
L 348.246553 115.13715 
L 349.014759 116.655396 
L 349.87899 118.886163 
L 350.846106 122.029975 
L 351.922966 126.319857 
L 353.123288 132.055795 
L 354.45393 139.547555 
L 355.92861 149.173668 
L 357.567906 161.39874 
L 359.406113 176.843175 
L 361.504961 196.438008 
L 363.981052 221.745669 
L 367.177337 256.865396 
L 376.649587 362.431809 
L 379.146256 386.947515 
L 381.258822 405.58122 
L 383.110746 420.017902 
L 384.756901 431.177139 
L 386.231582 439.722733 
L 387.562224 446.185861 
L 388.755686 450.932728 
L 389.818828 454.299861 
L 390.758508 456.58616 
L 391.588445 458.059637 
L 392.315497 458.926021 
L 392.946523 459.354986 
L 393.515818 459.483762 
L 394.057677 459.378623 
L 394.620114 459.034741 
L 395.237422 458.382623 
L 395.930179 457.30983 
L 396.718961 455.652103 
L 397.60377 453.245251 
L 398.598322 449.859051 
L 399.702617 445.272305 
L 400.930375 439.180347 
L 402.288453 431.271755 
L 403.797428 421.118719 
L 405.477878 408.240215 
L 407.370957 391.941414 
L 409.538394 371.269347 
L 412.124229 344.368732 
L 415.61545 305.520332 
L 423.263212 219.798977 
L 425.931355 192.790569 
L 428.146806 172.537252 
L 430.074179 156.885625 
L 431.782065 144.763026 
L 433.311617 135.432471 
L 434.683413 128.373118 
L 435.918029 123.128253 
L 437.022325 119.356751 
L 438.003159 116.752285 
L 438.867391 115.047835 
L 439.621878 114.016672 
L 440.28034 113.466938 
L 440.863354 113.253542 
L 441.405213 113.285707 
L 441.953931 113.54454 
L 442.550663 114.084054 
L 443.215984 115.001536 
L 443.970471 116.442849 
L 444.820985 118.574045 
L 445.774383 121.592965 
L 446.837525 125.730266 
L 448.024128 131.28345 
L 449.341052 138.561354 
L 450.795156 147.895207 
L 452.413875 159.785092 
L 454.224646 174.794372 
L 456.289198 193.841838 
L 458.710418 218.344012 
L 461.783241 251.857853 
L 472.27748 368.303826 
L 474.671264 391.31089 
L 476.722098 408.956249 
L 477.188509 412.666102 
L 477.188509 412.666102 
" clip-path="url(#p14db9aeb4b)" style="fill: none; stroke: #d62728; stroke-width: 1.5; stroke-linecap: square"/>
   </g>
   <g id="patch_3">
    <path d="M 68.976 478.29312 
L 68.976 64.48896 
" style="fill: none; stroke: #000000; stroke-width: 0.8; stroke-linejoin: miter; stroke-linecap: square"/>
   </g>
   <g id="patch_4">
    <path d="M 496.6272 478.29312 
L 496.6272 64.48896 
" style="fill: none; stroke: #000000; stroke-width: 0.8; stroke-linejoin: miter; stroke-linecap: square"/>
   </g>
   <g id="patch_5">
    <path d="M 68.976 478.29312 
L 496.6272 478.29312 
" style="fill: none; stroke: #000000; stroke-width: 0.8; stroke-linejoin: miter; stroke-linecap: square"/>
   </g>
   <g id="patch_6">
    <path d="M 68.976 64.48896 
L 496.6272 64.48896 
" style="fill: none; stroke: #000000; stroke-width: 0.8; stroke-linejoin: miter; stroke-linecap: square"/>
   </g>
   <g id="text_17">
    <!-- Quaternion Satélite -->
    <g transform="translate(224.435663 58.48896) scale(0.12 -0.12)">
     <defs>
      <path id="DejaVuSans-53" d="M 3425 4513 
L 3425 3897 
Q 3066 4069 2747 4153 
Q 2428 4238 2131 4238 
Q 1616 4238 1336 4038 
Q 1056 3838 1056 3469 
Q 1056 3159 1242 3001 
Q 1428 2844 1947 2747 
L 2328 2669 
Q 3034 2534 3370 2195 
Q 3706 1856 3706 1288 
Q 3706 609 3251 259 
Q 2797 -91 1919 -91 
Q 1588 -91 1214 -16 
Q 841 59 441 206 
L 441 856 
Q 825 641 1194 531 
Q 1563 422 1919 422 
Q 2459 422 2753 634 
Q 3047 847 3047 1241 
Q 3047 1584 2836 1778 
Q 2625 1972 2144 2069 
L 1759 2144 
Q 1053 2284 737 2584 
Q 422 2884 422 3419 
Q 422 4038 858 4394 
Q 1294 4750 2059 4750 
Q 2388 4750 2728 4690 
Q 3069 4631 3425 4513 
z
" transform="scale(0.015625)"/>
      <path id="DejaVuSans-e9" d="M 3597 1894 
L 3597 1613 
L 953 1613 
Q 991 1019 1311 708 
Q 1631 397 2203 397 
Q 2534 397 2845 478 
Q 3156 559 3463 722 
L 3463 178 
Q 3153 47 2828 -22 
Q 2503 -91 2169 -91 
Q 1331 -91 842 396 
Q 353 884 353 1716 
Q 353 2575 817 3079 
Q 1281 3584 2069 3584 
Q 2775 3584 3186 3129 
Q 3597 2675 3597 1894 
z
M 3022 2063 
Q 3016 2534 2758 2815 
Q 2500 3097 2075 3097 
Q 1594 3097 1305 2825 
Q 1016 2553 972 2059 
L 3022 2063 
z
M 2466 5119 
L 3088 5119 
L 2070 3944 
L 1591 3944 
L 2466 5119 
z
" transform="scale(0.015625)"/>
      <path id="DejaVuSans-6c" d="M 603 4863 
L 1178 4863 
L 1178 0 
L 603 0 
L 603 4863 
z
" transform="scale(0.015625)"/>
     </defs>
     <use xlink:href="#DejaVuSans-51"/>
     <use xlink:href="#DejaVuSans-75" transform="translate(78.710938 0)"/>
     <use xlink:href="#DejaVuSans-61" transform="translate(142.089844 0)"/>
     <use xlink:href="#DejaVuSans-74" transform="translate(203.369141 0)"/>
     <use xlink:href="#DejaVuSans-65" transform="translate(242.578125 0)"/>
     <use xlink:href="#DejaVuSans-72" transform="translate(304.101562 0)"/>
     <use xlink:href="#DejaVuSans-6e" transform="translate(343.464844 0)"/>
     <use xlink:href="#DejaVuSans-69" transform="translate(406.84375 0)"/>
     <use xlink:href="#DejaVuSans-6f" transform="translate(434.626953 0)"/>
     <use xlink:href="#DejaVuSans-6e" transform="translate(495.808594 0)"/>
     <use xlink:href="#DejaVuSans-20" transform="translate(559.1875 0)"/>
     <use xlink:href="#DejaVuSans-53" transform="translate(590.974609 0)"/>
     <use xlink:href="#DejaVuSans-61" transform="translate(654.451172 0)"/>
     <use xlink:href="#DejaVuSans-74" transform="translate(715.730469 0)"/>
     <use xlink:href="#DejaVuSans-e9" transform="translate(754.939453 0)"/>
     <use xlink:href="#DejaVuSans-6c" transform="translate(816.462891 0)"/>
     <use xlink:href="#DejaVuSans-69" transform="translate(844.246094 0)"/>
     <use xlink:href="#DejaVuSans-74" transform="translate(872.029297 0)"/>
     <use xlink:href="#DejaVuSans-65" transform="translate(911.238281 0)"/>
    </g>
   </g>
   <g id="legend_1">
    <g id="patch_7">
     <path d="M 75.976 473.29312 
L 122.502562 473.29312 
Q 124.502562 473.29312 124.502562 471.29312 
L 124.502562 413.58062 
Q 124.502562 411.58062 122.502562 411.58062 
L 75.976 411.58062 
Q 73.976 411.58062 73.976 413.58062 
L 73.976 471.29312 
Q 73.976 473.29312 75.976 473.29312 
z
" style="fill: #ffffff; opacity: 0.8; stroke: #cccccc; stroke-linejoin: miter"/>
    </g>
    <g id="line2d_33">
     <path d="M 77.976 419.679057 
L 87.976 419.679057 
L 97.976 419.679057 
" style="fill: none; stroke: #1f77b4; stroke-width: 1.5; stroke-linecap: square"/>
    </g>
    <g id="text_18">
     <!-- qw -->
     <g transform="translate(105.976 423.179057) scale(0.1 -0.1)">
      <defs>
       <path id="DejaVuSans-71" d="M 947 1747 
Q 947 1113 1208 752 
Q 1469 391 1925 391 
Q 2381 391 2643 752 
Q 2906 1113 2906 1747 
Q 2906 2381 2643 2742 
Q 2381 3103 1925 3103 
Q 1469 3103 1208 2742 
Q 947 2381 947 1747 
z
M 2906 525 
Q 2725 213 2448 61 
Q 2172 -91 1784 -91 
Q 1150 -91 751 415 
Q 353 922 353 1747 
Q 353 2572 751 3078 
Q 1150 3584 1784 3584 
Q 2172 3584 2448 3432 
Q 2725 3281 2906 2969 
L 2906 3500 
L 3481 3500 
L 3481 -1331 
L 2906 -1331 
L 2906 525 
z
" transform="scale(0.015625)"/>
       <path id="DejaVuSans-77" d="M 269 3500 
L 844 3500 
L 1563 769 
L 2278 3500 
L 2956 3500 
L 3675 769 
L 4391 3500 
L 4966 3500 
L 4050 0 
L 3372 0 
L 2619 2869 
L 1863 0 
L 1184 0 
L 269 3500 
z
" transform="scale(0.015625)"/>
      </defs>
      <use xlink:href="#DejaVuSans-71"/>
      <use xlink:href="#DejaVuSans-77" transform="translate(63.476562 0)"/>
     </g>
    </g>
    <g id="line2d_34">
     <path d="M 77.976 434.357183 
L 87.976 434.357183 
L 97.976 434.357183 
" style="fill: none; stroke: #ff7f0e; stroke-width: 1.5; stroke-linecap: square"/>
    </g>
    <g id="text_19">
     <!-- qx -->
     <g transform="translate(105.976 437.857183) scale(0.1 -0.1)">
      <defs>
       <path id="DejaVuSans-78" d="M 3513 3500 
L 2247 1797 
L 3578 0 
L 2900 0 
L 1881 1375 
L 863 0 
L 184 0 
L 1544 1831 
L 300 3500 
L 978 3500 
L 1906 2253 
L 2834 3500 
L 3513 3500 
z
" transform="scale(0.015625)"/>
      </defs>
      <use xlink:href="#DejaVuSans-71"/>
      <use xlink:href="#DejaVuSans-78" transform="translate(63.476562 0)"/>
     </g>
    </g>
    <g id="line2d_35">
     <path d="M 77.976 449.035308 
L 87.976 449.035308 
L 97.976 449.035308 
" style="fill: none; stroke: #2ca02c; stroke-width: 1.5; stroke-linecap: square"/>
    </g>
    <g id="text_20">
     <!-- qy -->
     <g transform="translate(105.976 452.535308) scale(0.1 -0.1)">
      <defs>
       <path id="DejaVuSans-79" d="M 2059 -325 
Q 1816 -950 1584 -1140 
Q 1353 -1331 966 -1331 
L 506 -1331 
L 506 -850 
L 844 -850 
Q 1081 -850 1212 -737 
Q 1344 -625 1503 -206 
L 1606 56 
L 191 3500 
L 800 3500 
L 1894 763 
L 2988 3500 
L 3597 3500 
L 2059 -325 
z
" transform="scale(0.015625)"/>
      </defs>
      <use xlink:href="#DejaVuSans-71"/>
      <use xlink:href="#DejaVuSans-79" transform="translate(63.476562 0)"/>
     </g>
    </g>
    <g id="line2d_36">
     <path d="M 77.976 463.713433 
L 87.976 463.713433 
L 97.976 463.713433 
" style="fill: none; stroke: #d62728; stroke-width: 1.5; stroke-linecap: square"/>
    </g>
    <g id="text_21">
     <!-- qz -->
     <g transform="translate(105.976 467.213433) scale(0.1 -0.1)">
      <defs>
       <path id="DejaVuSans-7a" d="M 353 3500 
L 3084 3500 
L 3084 2975 
L 922 459 
L 3084 459 
L 3084 0 
L 275 0 
L 275 525 
L 2438 3041 
L 353 3041 
L 353 3500 
z
" transform="scale(0.015625)"/>
      </defs>
      <use xlink:href="#DejaVuSans-71"/>
      <use xlink:href="#DejaVuSans-7a" transform="translate(63.476562 0)"/>
     </g>
    </g>
   </g>
  </g>
 </g>
 <defs>
  <clipPath id="p14db9aeb4b">
   <rect x="68.976" y="64.48896" width="427.6512" height="413.80416"/>
  </clipPath>
 </defs>
</svg>
