<?xml version="1.0" encoding="utf-8" standalone="no"?>
<!DOCTYPE svg PUBLIC "-//W3C//DTD SVG 1.1//EN"
  "http://www.w3.org/Graphics/SVG/1.1/DTD/svg11.dtd">
<svg xmlns:xlink="http://www.w3.org/1999/xlink" width="551.808pt" height="537.408pt" viewBox="0 0 551.808 537.408" xmlns="http://www.w3.org/2000/svg" version="1.1">
 <metadata>
  <rdf:RDF xmlns:dc="http://purl.org/dc/elements/1.1/" xmlns:cc="http://creativecommons.org/ns#" xmlns:rdf="http://www.w3.org/1999/02/22-rdf-syntax-ns#">
   <cc:Work>
    <dc:type rdf:resource="http://purl.org/dc/dcmitype/StillImage"/>
    <dc:date>2026-05-08T12:12:41.190167</dc:date>
    <dc:format>image/svg+xml</dc:format>
    <dc:creator>
     <cc:Agent>
      <dc:title>Matplotlib v3.10.1, https://matplotlib.org/</dc:title>
     </cc:Agent>
    </dc:creator>
   </cc:Work>
  </rdf:RDF>
 </metadata>
 <defs>
  <style type="text/css">*{stroke-linejoin: round; stroke-linecap: butt}</style>
 </defs>
 <g id="figure_1">
  <g id="patch_1">
   <path d="M 0 537.408 
L 551.808 537.408 
L 551.808 0 
L 0 0 
z
" style="fill: #ffffff"/>
  </g>
  <g id="axes_1">
   <g id="patch_2">
    <path d="M 68.976 478.29312 
L 496.6272 478.29312 
L 496.6272 64.48896 
L 68.976 64.48896 
z
" style="fill: #ffffff"/>
   </g>
   <g id="matplotlib.axis_1">
    <g id="xtick_1">
     <g id="line2d_1">
      <path d="M 88.414691 478.29312 
L 88.414691 64.48896 
" clip-path="url(#p949af13583)" style="fill: none; stroke: #b0b0b0; stroke-width: 0.8; stroke-linecap: square"/>
     </g>
     <g id="line2d_2">
      <defs>
       <path id="me2e9b94cf7" d="M 0 0 
L 0 3.5 
" style="stroke: #000000; stroke-width: 0.8"/>
      </defs>
      <g>
       <use xlink:href="#me2e9b94cf7" x="88.414691" y="478.29312" style="stroke: #000000; stroke-width: 0.8"/>
      </g>
     </g>
     <g id="text_1">
      <!-- 0 -->
      <g transform="translate(85.233441 492.891558) scale(0.1 -0.1)">
       <defs>
        <path id="DejaVuSans-30" d="M 2034 4250 
Q 1547 4250 1301 3770 
Q 1056 3291 1056 2328 
Q 1056 1369 1301 889 
Q 1547 409 2034 409 
Q 2525 409 2770 889 
Q 3016 1369 3016 2328 
Q 3016 3291 2770 3770 
Q 2525 4250 2034 4250 
z
M 2034 4750 
Q 2819 4750 3233 4129 
Q 3647 3509 3647 2328 
Q 3647 1150 3233 529 
Q 2819 -91 2034 -91 
Q 1250 -91 836 529 
Q 422 1150 422 2328 
Q 422 3509 836 4129 
Q 1250 4750 2034 4750 
z
" transform="scale(0.015625)"/>
       </defs>
       <use xlink:href="#DejaVuSans-30"/>
      </g>
     </g>
    </g>
    <g id="xtick_2">
     <g id="line2d_3">
      <path d="M 157.004486 478.29312 
L 157.004486 64.48896 
" clip-path="url(#p949af13583)" style="fill: none; stroke: #b0b0b0; stroke-width: 0.8; stroke-linecap: square"/>
     </g>
     <g id="line2d_4">
      <g>
       <use xlink:href="#me2e9b94cf7" x="157.004486" y="478.29312" style="stroke: #000000; stroke-width: 0.8"/>
      </g>
     </g>
     <g id="text_2">
      <!-- 1000 -->
      <g transform="translate(144.279486 492.891558) scale(0.1 -0.1)">
       <defs>
        <path id="DejaVuSans-31" d="M 794 531 
L 1825 531 
L 1825 4091 
L 703 3866 
L 703 4441 
L 1819 4666 
L 2450 4666 
L 2450 531 
L 3481 531 
L 3481 0 
L 794 0 
L 794 531 
z
" transform="scale(0.015625)"/>
       </defs>
       <use xlink:href="#DejaVuSans-31"/>
       <use xlink:href="#DejaVuSans-30" transform="translate(63.623047 0)"/>
       <use xlink:href="#DejaVuSans-30" transform="translate(127.246094 0)"/>
       <use xlink:href="#DejaVuSans-30" transform="translate(190.869141 0)"/>
      </g>
     </g>
    </g>
    <g id="xtick_3">
     <g id="line2d_5">
      <path d="M 225.594281 478.29312 
L 225.594281 64.48896 
" clip-path="url(#p949af13583)" style="fill: none; stroke: #b0b0b0; stroke-width: 0.8; stroke-linecap: square"/>
     </g>
     <g id="line2d_6">
      <g>
       <use xlink:href="#me2e9b94cf7" x="225.594281" y="478.29312" style="stroke: #000000; stroke-width: 0.8"/>
      </g>
     </g>
     <g id="text_3">
      <!-- 2000 -->
      <g transform="translate(212.869281 492.891558) scale(0.1 -0.1)">
       <defs>
        <path id="DejaVuSans-32" d="M 1228 531 
L 3431 531 
L 3431 0 
L 469 0 
L 469 531 
Q 828 903 1448 1529 
Q 2069 2156 2228 2338 
Q 2531 2678 2651 2914 
Q 2772 3150 2772 3378 
Q 2772 3750 2511 3984 
Q 2250 4219 1831 4219 
Q 1534 4219 1204 4116 
Q 875 4013 500 3803 
L 500 4441 
Q 881 4594 1212 4672 
Q 1544 4750 1819 4750 
Q 2544 4750 2975 4387 
Q 3406 4025 3406 3419 
Q 3406 3131 3298 2873 
Q 3191 2616 2906 2266 
Q 2828 2175 2409 1742 
Q 1991 1309 1228 531 
z
" transform="scale(0.015625)"/>
       </defs>
       <use xlink:href="#DejaVuSans-32"/>
       <use xlink:href="#DejaVuSans-30" transform="translate(63.623047 0)"/>
       <use xlink:href="#DejaVuSans-30" transform="translate(127.246094 0)"/>
       <use xlink:href="#DejaVuSans-30" transform="translate(190.869141 0)"/>
      </g>
     </g>
    </g>
    <g id="xtick_4">
     <g id="line2d_7">
      <path d="M 294.184077 478.29312 
L 294.184077 64.48896 
" clip-path="url(#p949af13583)" style="fill: none; stroke: #b0b0b0; stroke-width: 0.8; stroke-linecap: square"/>
     </g>
     <g id="line2d_8">
      <g>
       <use xlink:href="#me2e9b94cf7" x="294.184077" y="478.29312" style="stroke: #000000; stroke-width: 0.8"/>
      </g>
     </g>
     <g id="text_4">
      <!-- 3000 -->
      <g transform="translate(281.459077 492.891558) scale(0.1 -0.1)">
       <defs>
        <path id="DejaVuSans-33" d="M 2597 2516 
Q 3050 2419 3304 2112 
Q 3559 1806 3559 1356 
Q 3559 666 3084 287 
Q 2609 -91 1734 -91 
Q 1441 -91 1130 -33 
Q 819 25 488 141 
L 488 750 
Q 750 597 1062 519 
Q 1375 441 1716 441 
Q 2309 441 2620 675 
Q 2931 909 2931 1356 
Q 2931 1769 2642 2001 
Q 2353 2234 1838 2234 
L 1294 2234 
L 1294 2753 
L 1863 2753 
Q 2328 2753 2575 2939 
Q 2822 3125 2822 3475 
Q 2822 3834 2567 4026 
Q 2313 4219 1838 4219 
Q 1578 4219 1281 4162 
Q 984 4106 628 3988 
L 628 4550 
Q 988 4650 1302 4700 
Q 1616 4750 1894 4750 
Q 2613 4750 3031 4423 
Q 3450 4097 3450 3541 
Q 3450 3153 3228 2886 
Q 3006 2619 2597 2516 
z
" transform="scale(0.015625)"/>
       </defs>
       <use xlink:href="#DejaVuSans-33"/>
       <use xlink:href="#DejaVuSans-30" transform="translate(63.623047 0)"/>
       <use xlink:href="#DejaVuSans-30" transform="translate(127.246094 0)"/>
       <use xlink:href="#DejaVuSans-30" transform="translate(190.869141 0)"/>
      </g>
     </g>
    </g>
    <g id="xtick_5">
     <g id="line2d_9">
      <path d="M 362.773872 478.29312 
L 362.773872 64.48896 
" clip-path="url(#p949af13583)" style="fill: none; stroke: #b0b0b0; stroke-width: 0.8; stroke-linecap: square"/>
     </g>
     <g id="line2d_10">
      <g>
       <use xlink:href="#me2e9b94cf7" x="362.773872" y="478.29312" style="stroke: #000000; stroke-width: 0.8"/>
      </g>
     </g>
     <g id="text_5">
      <!-- 4000 -->
      <g transform="translate(350.048872 492.891558) scale(0.1 -0.1)">
       <defs>
        <path id="DejaVuSans-34" d="M 2419 4116 
L 825 1625 
L 2419 1625 
L 2419 4116 
z
M 2253 4666 
L 3047 4666 
L 3047 1625 
L 3713 1625 
L 3713 1100 
L 3047 1100 
L 3047 0 
L 2419 0 
L 2419 1100 
L 313 1100 
L 313 1709 
L 2253 4666 
z
" transform="scale(0.015625)"/>
       </defs>
       <use xlink:href="#DejaVuSans-34"/>
       <use xlink:href="#DejaVuSans-30" transform="translate(63.623047 0)"/>
       <use xlink:href="#DejaVuSans-30" transform="translate(127.246094 0)"/>
       <use xlink:href="#DejaVuSans-30" transform="translate(190.869141 0)"/>
      </g>
     </g>
    </g>
    <g id="xtick_6">
     <g id="line2d_11">
      <path d="M 431.363667 478.29312 
L 431.363667 64.48896 
" clip-path="url(#p949af13583)" style="fill: none; stroke: #b0b0b0; stroke-width: 0.8; stroke-linecap: square"/>
     </g>
     <g id="line2d_12">
      <g>
       <use xlink:href="#me2e9b94cf7" x="431.363667" y="478.29312" style="stroke: #000000; stroke-width: 0.8"/>
      </g>
     </g>
     <g id="text_6">
      <!-- 5000 -->
      <g transform="translate(418.638667 492.891558) scale(0.1 -0.1)">
       <defs>
        <path id="DejaVuSans-35" d="M 691 4666 
L 3169 4666 
L 3169 4134 
L 1269 4134 
L 1269 2991 
Q 1406 3038 1543 3061 
Q 1681 3084 1819 3084 
Q 2600 3084 3056 2656 
Q 3513 2228 3513 1497 
Q 3513 744 3044 326 
Q 2575 -91 1722 -91 
Q 1428 -91 1123 -41 
Q 819 9 494 109 
L 494 744 
Q 775 591 1075 516 
Q 1375 441 1709 441 
Q 2250 441 2565 725 
Q 2881 1009 2881 1497 
Q 2881 1984 2565 2268 
Q 2250 2553 1709 2553 
Q 1456 2553 1204 2497 
Q 953 2441 691 2322 
L 691 4666 
z
" transform="scale(0.015625)"/>
       </defs>
       <use xlink:href="#DejaVuSans-35"/>
       <use xlink:href="#DejaVuSans-30" transform="translate(63.623047 0)"/>
       <use xlink:href="#DejaVuSans-30" transform="translate(127.246094 0)"/>
       <use xlink:href="#DejaVuSans-30" transform="translate(190.869141 0)"/>
      </g>
     </g>
    </g>
    <g id="text_7">
     <!-- Tiempo [s] -->
     <g transform="translate(256.2391 506.569682) scale(0.1 -0.1)">
      <defs>
       <path id="DejaVuSans-54" d="M -19 4666 
L 3928 4666 
L 3928 4134 
L 2272 4134 
L 2272 0 
L 1638 0 
L 1638 4134 
L -19 4134 
L -19 4666 
z
" transform="scale(0.015625)"/>
       <path id="DejaVuSans-69" d="M 603 3500 
L 1178 3500 
L 1178 0 
L 603 0 
L 603 3500 
z
M 603 4863 
L 1178 4863 
L 1178 4134 
L 603 4134 
L 603 4863 
z
" transform="scale(0.015625)"/>
       <path id="DejaVuSans-65" d="M 3597 1894 
L 3597 1613 
L 953 1613 
Q 991 1019 1311 708 
Q 1631 397 2203 397 
Q 2534 397 2845 478 
Q 3156 559 3463 722 
L 3463 178 
Q 3153 47 2828 -22 
Q 2503 -91 2169 -91 
Q 1331 -91 842 396 
Q 353 884 353 1716 
Q 353 2575 817 3079 
Q 1281 3584 2069 3584 
Q 2775 3584 3186 3129 
Q 3597 2675 3597 1894 
z
M 3022 2063 
Q 3016 2534 2758 2815 
Q 2500 3097 2075 3097 
Q 1594 3097 1305 2825 
Q 1016 2553 972 2059 
L 3022 2063 
z
" transform="scale(0.015625)"/>
       <path id="DejaVuSans-6d" d="M 3328 2828 
Q 3544 3216 3844 3400 
Q 4144 3584 4550 3584 
Q 5097 3584 5394 3201 
Q 5691 2819 5691 2113 
L 5691 0 
L 5113 0 
L 5113 2094 
Q 5113 2597 4934 2840 
Q 4756 3084 4391 3084 
Q 3944 3084 3684 2787 
Q 3425 2491 3425 1978 
L 3425 0 
L 2847 0 
L 2847 2094 
Q 2847 2600 2669 2842 
Q 2491 3084 2119 3084 
Q 1678 3084 1418 2786 
Q 1159 2488 1159 1978 
L 1159 0 
L 581 0 
L 581 3500 
L 1159 3500 
L 1159 2956 
Q 1356 3278 1631 3431 
Q 1906 3584 2284 3584 
Q 2666 3584 2933 3390 
Q 3200 3197 3328 2828 
z
" transform="scale(0.015625)"/>
       <path id="DejaVuSans-70" d="M 1159 525 
L 1159 -1331 
L 581 -1331 
L 581 3500 
L 1159 3500 
L 1159 2969 
Q 1341 3281 1617 3432 
Q 1894 3584 2278 3584 
Q 2916 3584 3314 3078 
Q 3713 2572 3713 1747 
Q 3713 922 3314 415 
Q 2916 -91 2278 -91 
Q 1894 -91 1617 61 
Q 1341 213 1159 525 
z
M 3116 1747 
Q 3116 2381 2855 2742 
Q 2594 3103 2138 3103 
Q 1681 3103 1420 2742 
Q 1159 2381 1159 1747 
Q 1159 1113 1420 752 
Q 1681 391 2138 391 
Q 2594 391 2855 752 
Q 3116 1113 3116 1747 
z
" transform="scale(0.015625)"/>
       <path id="DejaVuSans-6f" d="M 1959 3097 
Q 1497 3097 1228 2736 
Q 959 2375 959 1747 
Q 959 1119 1226 758 
Q 1494 397 1959 397 
Q 2419 397 2687 759 
Q 2956 1122 2956 1747 
Q 2956 2369 2687 2733 
Q 2419 3097 1959 3097 
z
M 1959 3584 
Q 2709 3584 3137 3096 
Q 3566 2609 3566 1747 
Q 3566 888 3137 398 
Q 2709 -91 1959 -91 
Q 1206 -91 779 398 
Q 353 888 353 1747 
Q 353 2609 779 3096 
Q 1206 3584 1959 3584 
z
" transform="scale(0.015625)"/>
       <path id="DejaVuSans-20" transform="scale(0.015625)"/>
       <path id="DejaVuSans-5b" d="M 550 4863 
L 1875 4863 
L 1875 4416 
L 1125 4416 
L 1125 -397 
L 1875 -397 
L 1875 -844 
L 550 -844 
L 550 4863 
z
" transform="scale(0.015625)"/>
       <path id="DejaVuSans-73" d="M 2834 3397 
L 2834 2853 
Q 2591 2978 2328 3040 
Q 2066 3103 1784 3103 
Q 1356 3103 1142 2972 
Q 928 2841 928 2578 
Q 928 2378 1081 2264 
Q 1234 2150 1697 2047 
L 1894 2003 
Q 2506 1872 2764 1633 
Q 3022 1394 3022 966 
Q 3022 478 2636 193 
Q 2250 -91 1575 -91 
Q 1294 -91 989 -36 
Q 684 19 347 128 
L 347 722 
Q 666 556 975 473 
Q 1284 391 1588 391 
Q 1994 391 2212 530 
Q 2431 669 2431 922 
Q 2431 1156 2273 1281 
Q 2116 1406 1581 1522 
L 1381 1569 
Q 847 1681 609 1914 
Q 372 2147 372 2553 
Q 372 3047 722 3315 
Q 1072 3584 1716 3584 
Q 2034 3584 2315 3537 
Q 2597 3491 2834 3397 
z
" transform="scale(0.015625)"/>
       <path id="DejaVuSans-5d" d="M 1947 4863 
L 1947 -844 
L 622 -844 
L 622 -397 
L 1369 -397 
L 1369 4416 
L 622 4416 
L 622 4863 
L 1947 4863 
z
" transform="scale(0.015625)"/>
      </defs>
      <use xlink:href="#DejaVuSans-54"/>
      <use xlink:href="#DejaVuSans-69" transform="translate(57.958984 0)"/>
      <use xlink:href="#DejaVuSans-65" transform="translate(85.742188 0)"/>
      <use xlink:href="#DejaVuSans-6d" transform="translate(147.265625 0)"/>
      <use xlink:href="#DejaVuSans-70" transform="translate(244.677734 0)"/>
      <use xlink:href="#DejaVuSans-6f" transform="translate(308.154297 0)"/>
      <use xlink:href="#DejaVuSans-20" transform="translate(369.335938 0)"/>
      <use xlink:href="#DejaVuSans-5b" transform="translate(401.123047 0)"/>
      <use xlink:href="#DejaVuSans-73" transform="translate(440.136719 0)"/>
      <use xlink:href="#DejaVuSans-5d" transform="translate(492.236328 0)"/>
     </g>
    </g>
   </g>
   <g id="matplotlib.axis_2">
    <g id="ytick_1">
     <g id="line2d_13">
      <path d="M 68.976 459.596683 
L 496.6272 459.596683 
" clip-path="url(#p949af13583)" style="fill: none; stroke: #b0b0b0; stroke-width: 0.8; stroke-linecap: square"/>
     </g>
     <g id="line2d_14">
      <defs>
       <path id="m34a3cda58c" d="M 0 0 
L -3.5 0 
" style="stroke: #000000; stroke-width: 0.8"/>
      </defs>
      <g>
       <use xlink:href="#m34a3cda58c" x="68.976" y="459.596683" style="stroke: #000000; stroke-width: 0.8"/>
      </g>
     </g>
     <g id="text_8">
      <!-- −1.00 -->
      <g transform="translate(31.330687 463.395902) scale(0.1 -0.1)">
       <defs>
        <path id="DejaVuSans-2212" d="M 678 2272 
L 4684 2272 
L 4684 1741 
L 678 1741 
L 678 2272 
z
" transform="scale(0.015625)"/>
        <path id="DejaVuSans-2e" d="M 684 794 
L 1344 794 
L 1344 0 
L 684 0 
L 684 794 
z
" transform="scale(0.015625)"/>
       </defs>
       <use xlink:href="#DejaVuSans-2212"/>
       <use xlink:href="#DejaVuSans-31" transform="translate(83.789062 0)"/>
       <use xlink:href="#DejaVuSans-2e" transform="translate(147.412109 0)"/>
       <use xlink:href="#DejaVuSans-30" transform="translate(179.199219 0)"/>
       <use xlink:href="#DejaVuSans-30" transform="translate(242.822266 0)"/>
      </g>
     </g>
    </g>
    <g id="ytick_2">
     <g id="line2d_15">
      <path d="M 68.976 412.559378 
L 496.6272 412.559378 
" clip-path="url(#p949af13583)" style="fill: none; stroke: #b0b0b0; stroke-width: 0.8; stroke-linecap: square"/>
     </g>
     <g id="line2d_16">
      <g>
       <use xlink:href="#m34a3cda58c" x="68.976" y="412.559378" style="stroke: #000000; stroke-width: 0.8"/>
      </g>
     </g>
     <g id="text_9">
      <!-- −0.75 -->
      <g transform="translate(31.330687 416.358597) scale(0.1 -0.1)">
       <defs>
        <path id="DejaVuSans-37" d="M 525 4666 
L 3525 4666 
L 3525 4397 
L 1831 0 
L 1172 0 
L 2766 4134 
L 525 4134 
L 525 4666 
z
" transform="scale(0.015625)"/>
       </defs>
       <use xlink:href="#DejaVuSans-2212"/>
       <use xlink:href="#DejaVuSans-30" transform="translate(83.789062 0)"/>
       <use xlink:href="#DejaVuSans-2e" transform="translate(147.412109 0)"/>
       <use xlink:href="#DejaVuSans-37" transform="translate(179.199219 0)"/>
       <use xlink:href="#DejaVuSans-35" transform="translate(242.822266 0)"/>
      </g>
     </g>
    </g>
    <g id="ytick_3">
     <g id="line2d_17">
      <path d="M 68.976 365.522072 
L 496.6272 365.522072 
" clip-path="url(#p949af13583)" style="fill: none; stroke: #b0b0b0; stroke-width: 0.8; stroke-linecap: square"/>
     </g>
     <g id="line2d_18">
      <g>
       <use xlink:href="#m34a3cda58c" x="68.976" y="365.522072" style="stroke: #000000; stroke-width: 0.8"/>
      </g>
     </g>
     <g id="text_10">
      <!-- −0.50 -->
      <g transform="translate(31.330687 369.321291) scale(0.1 -0.1)">
       <use xlink:href="#DejaVuSans-2212"/>
       <use xlink:href="#DejaVuSans-30" transform="translate(83.789062 0)"/>
       <use xlink:href="#DejaVuSans-2e" transform="translate(147.412109 0)"/>
       <use xlink:href="#DejaVuSans-35" transform="translate(179.199219 0)"/>
       <use xlink:href="#DejaVuSans-30" transform="translate(242.822266 0)"/>
      </g>
     </g>
    </g>
    <g id="ytick_4">
     <g id="line2d_19">
      <path d="M 68.976 318.484767 
L 496.6272 318.484767 
" clip-path="url(#p949af13583)" style="fill: none; stroke: #b0b0b0; stroke-width: 0.8; stroke-linecap: square"/>
     </g>
     <g id="line2d_20">
      <g>
       <use xlink:href="#m34a3cda58c" x="68.976" y="318.484767" style="stroke: #000000; stroke-width: 0.8"/>
      </g>
     </g>
     <g id="text_11">
      <!-- −0.25 -->
      <g transform="translate(31.330687 322.283986) scale(0.1 -0.1)">
       <use xlink:href="#DejaVuSans-2212"/>
       <use xlink:href="#DejaVuSans-30" transform="translate(83.789062 0)"/>
       <use xlink:href="#DejaVuSans-2e" transform="translate(147.412109 0)"/>
       <use xlink:href="#DejaVuSans-32" transform="translate(179.199219 0)"/>
       <use xlink:href="#DejaVuSans-35" transform="translate(242.822266 0)"/>
      </g>
     </g>
    </g>
    <g id="ytick_5">
     <g id="line2d_21">
      <path d="M 68.976 271.447462 
L 496.6272 271.447462 
" clip-path="url(#p949af13583)" style="fill: none; stroke: #b0b0b0; stroke-width: 0.8; stroke-linecap: square"/>
     </g>
     <g id="line2d_22">
      <g>
       <use xlink:href="#m34a3cda58c" x="68.976" y="271.447462" style="stroke: #000000; stroke-width: 0.8"/>
      </g>
     </g>
     <g id="text_12">
      <!-- 0.00 -->
      <g transform="translate(39.710375 275.24668) scale(0.1 -0.1)">
       <use xlink:href="#DejaVuSans-30"/>
       <use xlink:href="#DejaVuSans-2e" transform="translate(63.623047 0)"/>
       <use xlink:href="#DejaVuSans-30" transform="translate(95.410156 0)"/>
       <use xlink:href="#DejaVuSans-30" transform="translate(159.033203 0)"/>
      </g>
     </g>
    </g>
    <g id="ytick_6">
     <g id="line2d_23">
      <path d="M 68.976 224.410156 
L 496.6272 224.410156 
" clip-path="url(#p949af13583)" style="fill: none; stroke: #b0b0b0; stroke-width: 0.8; stroke-linecap: square"/>
     </g>
     <g id="line2d_24">
      <g>
       <use xlink:href="#m34a3cda58c" x="68.976" y="224.410156" style="stroke: #000000; stroke-width: 0.8"/>
      </g>
     </g>
     <g id="text_13">
      <!-- 0.25 -->
      <g transform="translate(39.710375 228.209375) scale(0.1 -0.1)">
       <use xlink:href="#DejaVuSans-30"/>
       <use xlink:href="#DejaVuSans-2e" transform="translate(63.623047 0)"/>
       <use xlink:href="#DejaVuSans-32" transform="translate(95.410156 0)"/>
       <use xlink:href="#DejaVuSans-35" transform="translate(159.033203 0)"/>
      </g>
     </g>
    </g>
    <g id="ytick_7">
     <g id="line2d_25">
      <path d="M 68.976 177.372851 
L 496.6272 177.372851 
" clip-path="url(#p949af13583)" style="fill: none; stroke: #b0b0b0; stroke-width: 0.8; stroke-linecap: square"/>
     </g>
     <g id="line2d_26">
      <g>
       <use xlink:href="#m34a3cda58c" x="68.976" y="177.372851" style="stroke: #000000; stroke-width: 0.8"/>
      </g>
     </g>
     <g id="text_14">
      <!-- 0.50 -->
      <g transform="translate(39.710375 181.17207) scale(0.1 -0.1)">
       <use xlink:href="#DejaVuSans-30"/>
       <use xlink:href="#DejaVuSans-2e" transform="translate(63.623047 0)"/>
       <use xlink:href="#DejaVuSans-35" transform="translate(95.410156 0)"/>
       <use xlink:href="#DejaVuSans-30" transform="translate(159.033203 0)"/>
      </g>
     </g>
    </g>
    <g id="ytick_8">
     <g id="line2d_27">
      <path d="M 68.976 130.335545 
L 496.6272 130.335545 
" clip-path="url(#p949af13583)" style="fill: none; stroke: #b0b0b0; stroke-width: 0.8; stroke-linecap: square"/>
     </g>
     <g id="line2d_28">
      <g>
       <use xlink:href="#m34a3cda58c" x="68.976" y="130.335545" style="stroke: #000000; stroke-width: 0.8"/>
      </g>
     </g>
     <g id="text_15">
      <!-- 0.75 -->
      <g transform="translate(39.710375 134.134764) scale(0.1 -0.1)">
       <use xlink:href="#DejaVuSans-30"/>
       <use xlink:href="#DejaVuSans-2e" transform="translate(63.623047 0)"/>
       <use xlink:href="#DejaVuSans-37" transform="translate(95.410156 0)"/>
       <use xlink:href="#DejaVuSans-35" transform="translate(159.033203 0)"/>
      </g>
     </g>
    </g>
    <g id="ytick_9">
     <g id="line2d_29">
      <path d="M 68.976 83.29824 
L 496.6272 83.29824 
" clip-path="url(#p949af13583)" style="fill: none; stroke: #b0b0b0; stroke-width: 0.8; stroke-linecap: square"/>
     </g>
     <g id="line2d_30">
      <g>
       <use xlink:href="#m34a3cda58c" x="68.976" y="83.29824" style="stroke: #000000; stroke-width: 0.8"/>
      </g>
     </g>
     <g id="text_16">
      <!-- 1.00 -->
      <g transform="translate(39.710375 87.097459) scale(0.1 -0.1)">
       <use xlink:href="#DejaVuSans-31"/>
       <use xlink:href="#DejaVuSans-2e" transform="translate(63.623047 0)"/>
       <use xlink:href="#DejaVuSans-30" transform="translate(95.410156 0)"/>
       <use xlink:href="#DejaVuSans-30" transform="translate(159.033203 0)"/>
      </g>
     </g>
    </g>
    <g id="text_17">
     <!-- Quaternion -->
     <g transform="translate(25.251 299.350415) rotate(-90) scale(0.1 -0.1)">
      <defs>
       <path id="DejaVuSans-51" d="M 2522 4238 
Q 1834 4238 1429 3725 
Q 1025 3213 1025 2328 
Q 1025 1447 1429 934 
Q 1834 422 2522 422 
Q 3209 422 3611 934 
Q 4013 1447 4013 2328 
Q 4013 3213 3611 3725 
Q 3209 4238 2522 4238 
z
M 3406 84 
L 4238 -825 
L 3475 -825 
L 2784 -78 
Q 2681 -84 2626 -87 
Q 2572 -91 2522 -91 
Q 1538 -91 948 567 
Q 359 1225 359 2328 
Q 359 3434 948 4092 
Q 1538 4750 2522 4750 
Q 3503 4750 4090 4092 
Q 4678 3434 4678 2328 
Q 4678 1516 4351 937 
Q 4025 359 3406 84 
z
" transform="scale(0.015625)"/>
       <path id="DejaVuSans-75" d="M 544 1381 
L 544 3500 
L 1119 3500 
L 1119 1403 
Q 1119 906 1312 657 
Q 1506 409 1894 409 
Q 2359 409 2629 706 
Q 2900 1003 2900 1516 
L 2900 3500 
L 3475 3500 
L 3475 0 
L 2900 0 
L 2900 538 
Q 2691 219 2414 64 
Q 2138 -91 1772 -91 
Q 1169 -91 856 284 
Q 544 659 544 1381 
z
M 1991 3584 
L 1991 3584 
z
" transform="scale(0.015625)"/>
       <path id="DejaVuSans-61" d="M 2194 1759 
Q 1497 1759 1228 1600 
Q 959 1441 959 1056 
Q 959 750 1161 570 
Q 1363 391 1709 391 
Q 2188 391 2477 730 
Q 2766 1069 2766 1631 
L 2766 1759 
L 2194 1759 
z
M 3341 1997 
L 3341 0 
L 2766 0 
L 2766 531 
Q 2569 213 2275 61 
Q 1981 -91 1556 -91 
Q 1019 -91 701 211 
Q 384 513 384 1019 
Q 384 1609 779 1909 
Q 1175 2209 1959 2209 
L 2766 2209 
L 2766 2266 
Q 2766 2663 2505 2880 
Q 2244 3097 1772 3097 
Q 1472 3097 1187 3025 
Q 903 2953 641 2809 
L 641 3341 
Q 956 3463 1253 3523 
Q 1550 3584 1831 3584 
Q 2591 3584 2966 3190 
Q 3341 2797 3341 1997 
z
" transform="scale(0.015625)"/>
       <path id="DejaVuSans-74" d="M 1172 4494 
L 1172 3500 
L 2356 3500 
L 2356 3053 
L 1172 3053 
L 1172 1153 
Q 1172 725 1289 603 
Q 1406 481 1766 481 
L 2356 481 
L 2356 0 
L 1766 0 
Q 1100 0 847 248 
Q 594 497 594 1153 
L 594 3053 
L 172 3053 
L 172 3500 
L 594 3500 
L 594 4494 
L 1172 4494 
z
" transform="scale(0.015625)"/>
       <path id="DejaVuSans-72" d="M 2631 2963 
Q 2534 3019 2420 3045 
Q 2306 3072 2169 3072 
Q 1681 3072 1420 2755 
Q 1159 2438 1159 1844 
L 1159 0 
L 581 0 
L 581 3500 
L 1159 3500 
L 1159 2956 
Q 1341 3275 1631 3429 
Q 1922 3584 2338 3584 
Q 2397 3584 2469 3576 
Q 2541 3569 2628 3553 
L 2631 2963 
z
" transform="scale(0.015625)"/>
       <path id="DejaVuSans-6e" d="M 3513 2113 
L 3513 0 
L 2938 0 
L 2938 2094 
Q 2938 2591 2744 2837 
Q 2550 3084 2163 3084 
Q 1697 3084 1428 2787 
Q 1159 2491 1159 1978 
L 1159 0 
L 581 0 
L 581 3500 
L 1159 3500 
L 1159 2956 
Q 1366 3272 1645 3428 
Q 1925 3584 2291 3584 
Q 2894 3584 3203 3211 
Q 3513 2838 3513 2113 
z
" transform="scale(0.015625)"/>
      </defs>
      <use xlink:href="#DejaVuSans-51"/>
      <use xlink:href="#DejaVuSans-75" transform="translate(78.710938 0)"/>
      <use xlink:href="#DejaVuSans-61" transform="translate(142.089844 0)"/>
      <use xlink:href="#DejaVuSans-74" transform="translate(203.369141 0)"/>
      <use xlink:href="#DejaVuSans-65" transform="translate(242.578125 0)"/>
      <use xlink:href="#DejaVuSans-72" transform="translate(304.101562 0)"/>
      <use xlink:href="#DejaVuSans-6e" transform="translate(343.464844 0)"/>
      <use xlink:href="#DejaVuSans-69" transform="translate(406.84375 0)"/>
      <use xlink:href="#DejaVuSans-6f" transform="translate(434.626953 0)"/>
      <use xlink:href="#DejaVuSans-6e" transform="translate(495.808594 0)"/>
     </g>
    </g>
   </g>
   <g id="line2d_31">
    <path d="M 88.414691 83.29824 
L 157.566922 83.408262 
L 158.115641 83.761641 
L 158.719231 84.431199 
L 159.405129 85.547783 
L 160.180194 87.261986 
L 161.058143 89.777831 
L 162.038977 93.299098 
L 163.136414 98.109323 
L 164.357312 104.509393 
L 165.708531 112.829112 
L 167.210648 123.520631 
L 168.884239 137.090989 
L 170.770458 154.270723 
L 172.944755 176.202849 
L 175.558026 204.941176 
L 179.15899 247.235739 
L 186.14829 329.671006 
L 188.871305 358.864154 
L 191.12105 380.680599 
L 193.075859 397.552293 
L 194.811181 410.67669 
L 196.36817 420.830687 
L 197.77426 428.598274 
L 199.043172 434.415146 
L 200.181762 438.642327 
L 201.196891 441.604121 
L 202.095417 443.583337 
L 202.8842 444.820342 
L 203.576957 445.519802 
L 204.180547 445.834259 
L 204.736125 445.881401 
L 205.284843 445.70075 
L 205.867856 445.262592 
L 206.5126 444.48462 
L 207.246511 443.227481 
L 208.076448 441.335344 
L 209.009269 438.623048 
L 210.051834 434.875713 
L 211.21786 429.817942 
L 212.521066 423.128272 
L 213.968311 414.489107 
L 215.593889 403.381492 
L 217.425237 389.26999 
L 219.537802 371.187206 
L 222.068766 347.509406 
L 225.505115 313.083199 
L 233.111723 236.312917 
L 235.800443 211.796834 
L 238.043329 193.304505 
L 240.004997 178.900912 
L 241.760896 167.588137 
L 243.34532 158.767532 
L 244.785706 151.954 
L 246.088912 146.81421 
L 247.268657 143.019963 
L 248.331798 140.308573 
L 249.285197 138.450927 
L 250.13571 137.251819 
L 250.890198 136.548401 
L 251.569237 136.203227 
L 252.200263 136.125066 
L 252.817571 136.272654 
L 253.469174 136.666167 
L 254.175649 137.364923 
L 254.964432 138.473827 
L 255.84924 140.121371 
L 256.843792 142.468216 
L 257.954947 145.686913 
L 259.203281 150.018134 
L 260.595654 155.686199 
L 262.16636 163.053005 
L 263.949695 172.530558 
L 266.014248 184.758676 
L 268.517775 200.996218 
L 271.98156 225.06175 
L 279.073745 274.599157 
L 281.810477 291.946026 
L 284.101377 305.09273 
L 286.117917 315.417323 
L 287.935546 323.605314 
L 289.58856 330.065553 
L 291.104395 335.128535 
L 292.496768 339.036189 
L 293.779397 342.000357 
L 294.959141 344.189154 
L 296.036001 345.741202 
L 297.030553 346.802044 
L 297.949656 347.47025 
L 298.813888 347.831065 
L 299.643824 347.939628 
L 300.466902 347.823527 
L 301.324274 347.473225 
L 302.236518 346.853139 
L 303.237929 345.892053 
L 304.342225 344.510865 
L 305.576841 342.595354 
L 306.969214 340.006467 
L 308.560498 336.555949 
L 310.412422 331.983468 
L 312.669026 325.784999 
L 315.789862 316.499412 
L 322.72429 295.699294 
L 325.316985 288.734708 
L 327.525576 283.415464 
L 329.51468 279.186616 
L 331.346028 275.801023 
L 333.053913 273.096431 
L 334.672633 270.936347 
L 336.229621 269.219746 
L 337.745455 267.87284 
L 339.240713 266.83646 
L 340.749688 266.05802 
L 342.313536 265.500724 
L 344.000845 265.138133 
L 345.935077 264.956618 
L 348.555207 264.953786 
L 353.1713 264.965054 
L 355.153545 264.721996 
L 356.86829 264.290444 
L 358.459574 263.660727 
L 359.995985 262.811122 
L 361.518678 261.710854 
L 363.061949 260.315625 
L 364.653232 258.570139 
L 366.319964 256.403753 
L 368.09644 253.720348 
L 370.030672 250.382806 
L 372.19811 246.18178 
L 374.770227 240.68553 
L 378.542666 232.030914 
L 383.124464 221.633486 
L 385.456517 216.892521 
L 387.322159 213.580669 
L 388.906584 211.201674 
L 390.285239 209.515008 
L 391.506137 208.357334 
L 392.603574 207.611602 
L 393.604985 207.192459 
L 394.537806 207.039293 
L 395.429473 207.116823 
L 396.314282 207.418575 
L 397.219667 207.966912 
L 398.166206 208.806771 
L 399.174476 210.008643 
L 400.258195 211.661171 
L 401.417362 213.848897 
L 402.672556 216.71221 
L 404.023775 220.369958 
L 405.484737 224.990247 
L 407.069161 230.765571 
L 408.797624 237.937809 
L 410.697562 246.805129 
L 412.823845 257.830865 
L 415.27936 271.789887 
L 418.352183 290.626877 
L 428.448601 353.594636 
L 430.705205 365.671048 
L 432.612001 374.714714 
L 434.271874 381.554298 
L 435.732837 386.675517 
L 437.029184 390.450012 
L 438.181493 393.156333 
L 439.203481 395.019789 
L 440.108866 396.233057 
L 440.904507 396.950166 
L 441.617841 397.309431 
L 442.276303 397.399083 
L 442.914188 397.261533 
L 443.57265 396.885481 
L 444.279125 396.215318 
L 445.061049 395.149531 
L 445.92528 393.573606 
L 446.878679 391.349556 
L 447.934961 388.292183 
L 449.094129 384.224915 
L 450.369899 378.900237 
L 451.769131 372.063566 
L 453.305542 363.400811 
L 454.99971 352.523089 
L 456.879071 338.958296 
L 459.005354 321.929075 
L 461.495164 300.110109 
L 464.67773 270.118736 
L 474.163699 179.40937 
L 476.57806 159.185037 
L 477.188509 154.421 
L 477.188509 154.421 
" clip-path="url(#p949af13583)" style="fill: none; stroke: #1f77b4; stroke-width: 1.5; stroke-linecap: square"/>
   </g>
   <g id="line2d_32">
    <path d="M 88.414691 271.447462 
L 157.04564 271.353387 
L 157.196538 269.584817 
L 162.327054 207.62822 
L 165.084364 177.021583 
L 167.334109 154.418841 
L 169.282059 137.001419 
L 171.003663 123.522746 
L 172.546934 113.12057 
L 173.932448 105.228531 
L 175.173923 99.37589 
L 176.285078 95.147366 
L 177.272771 92.207598 
L 178.143861 90.263995 
L 178.905208 89.067999 
L 179.570529 88.408678 
L 180.146683 88.129041 
L 180.674824 88.110237 
L 181.202966 88.3183 
L 181.772261 88.795914 
L 182.410146 89.641876 
L 183.130339 90.989002 
L 183.946558 93.013197 
L 184.865661 95.91594 
L 185.901367 99.96203 
L 187.053675 105.401655 
L 188.336305 112.573977 
L 189.762972 121.863684 
L 191.361115 133.796976 
L 193.158167 148.961089 
L 195.215861 168.295513 
L 197.657658 193.443846 
L 200.860801 228.916386 
L 209.654013 327.53547 
L 212.178117 352.655513 
L 214.31126 371.753048 
L 216.183761 386.596528 
L 217.857352 398.160134 
L 219.366328 407.097469 
L 220.724406 413.868172 
L 221.952163 418.913184 
L 223.056459 422.557171 
L 224.037293 425.073624 
L 224.908383 426.736039 
L 225.676589 427.7539 
L 226.348769 428.300102 
L 226.952359 428.517405 
L 227.514796 428.488282 
L 228.084091 428.232601 
L 228.701399 427.700129 
L 229.394156 426.789517 
L 230.17608 425.36927 
L 231.054029 423.287568 
L 232.041722 420.344582 
L 233.146018 416.324549 
L 234.380634 410.956417 
L 235.766148 403.89484 
L 237.316277 394.78987 
L 239.072176 383.092547 
L 241.088716 368.094334 
L 243.496218 348.435039 
L 246.685643 320.412385 
L 255.122188 245.403747 
L 257.673729 225.202832 
L 259.834307 209.803741 
L 261.734244 197.800394 
L 263.44213 188.380154 
L 264.985401 181.065763 
L 266.384633 175.464046 
L 267.653544 171.256341 
L 268.805852 168.166375 
L 269.848417 165.974947 
L 270.781238 164.501218 
L 271.618034 163.569011 
L 272.372522 163.042196 
L 273.065279 162.817858 
L 273.7306 162.833395 
L 274.40278 163.075751 
L 275.116113 163.578019 
L 275.898037 164.41266 
L 276.769128 165.683499 
L 277.743103 167.516327 
L 278.83368 170.063304 
L 280.061438 173.522631 
L 281.440093 178.102393 
L 282.997081 184.077683 
L 284.787275 191.87026 
L 286.892981 202.07884 
L 289.540547 216.087842 
L 294.09491 241.626248 
L 298.230874 264.298245 
L 300.871582 277.566962 
L 303.073314 287.533509 
L 305.000687 295.268122 
L 306.736009 301.34775 
L 308.313574 306.095963 
L 309.75396 309.756654 
L 311.077743 312.540913 
L 312.298641 314.612779 
L 313.423514 316.10198 
L 314.466079 317.127063 
L 315.433195 317.778064 
L 316.352298 318.135516 
L 317.243966 318.245838 
L 318.135633 318.130971 
L 319.061595 317.782632 
L 320.049288 317.165906 
L 321.126148 316.221809 
L 322.319611 314.868526 
L 323.66397 312.99416 
L 325.207241 310.443108 
L 327.02487 306.988088 
L 329.329488 302.097242 
L 333.575196 292.43722 
L 336.84007 285.286439 
L 339.048662 280.966498 
L 340.886868 277.840436 
L 342.491869 275.531817 
L 343.932255 273.834279 
L 345.24232 272.620874 
L 346.4495 271.794565 
L 347.581232 271.281031 
L 348.664951 271.029202 
L 349.721234 271.009949 
L 350.784376 271.214057 
L 351.881812 271.655427 
L 353.04098 272.368262 
L 354.289314 273.406429 
L 355.654251 274.841774 
L 357.176944 276.778806 
L 358.919125 279.370728 
L 361.017973 282.914128 
L 363.987911 288.412458 
L 368.796056 297.305535 
L 370.881186 300.671835 
L 372.568494 302.993473 
L 374.015739 304.622432 
L 375.28465 305.730243 
L 376.423241 306.44051 
L 377.465806 306.835895 
L 378.439781 306.971105 
L 379.372602 306.87804 
L 380.305423 306.558571 
L 381.258822 305.990563 
L 382.253374 305.131103 
L 383.309656 303.913858 
L 384.441388 302.25698 
L 385.655427 300.07165 
L 386.972351 297.225452 
L 388.399019 293.592319 
L 389.956008 288.99551 
L 391.663893 283.235002 
L 393.57069 275.989746 
L 395.744986 266.816219 
L 398.365116 254.744428 
L 402.233581 235.737387 
L 407.192623 211.573446 
L 409.689292 200.520445 
L 411.698973 192.585419 
L 413.413718 186.679784 
L 414.908975 182.290302 
L 416.225899 179.079124 
L 417.391926 176.790625 
L 418.427632 175.221865 
L 419.346735 174.21226 
L 420.162953 173.627856 
L 420.903723 173.358525 
L 421.603339 173.337031 
L 422.289237 173.539257 
L 423.002571 173.987345 
L 423.770777 174.744133 
L 424.607572 175.895059 
L 425.526675 177.554086 
L 426.541804 179.868145 
L 427.652959 182.979332 
L 428.873857 187.088293 
L 430.211358 192.404678 
L 431.672321 199.156752 
L 433.284181 207.699171 
L 435.067516 218.397177 
L 437.070338 231.820248 
L 439.374955 248.838839 
L 442.200855 271.461654 
L 446.768935 310.136446 
L 451.199836 346.97813 
L 453.833684 367.060925 
L 455.973685 381.743384 
L 457.811892 392.878965 
L 459.423752 401.339992 
L 460.857279 407.729504 
L 462.133049 412.446728 
L 463.264781 415.824015 
L 464.266192 418.153107 
L 465.144141 419.670321 
L 465.919206 420.593253 
L 466.598245 421.075711 
L 467.201835 421.245892 
L 467.777989 421.179317 
L 468.361002 420.882829 
L 468.992029 420.301009 
L 469.691644 419.337952 
L 470.480427 417.85074 
L 471.358376 415.695993 
L 472.339211 412.670022 
L 473.429788 408.547171 
L 474.63011 403.102828 
L 475.953893 396.026567 
L 477.188509 388.450652 
L 477.188509 388.450652 
" clip-path="url(#p949af13583)" style="fill: none; stroke: #ff7f0e; stroke-width: 1.5; stroke-linecap: square"/>
   </g>
   <g id="line2d_33">
    <path d="M 88.414691 271.447462 
L 158.095064 271.557255 
L 159.165065 271.894071 
L 160.283078 272.484873 
L 161.469682 273.371657 
L 162.752311 274.618276 
L 164.158402 276.30732 
L 165.729108 278.556649 
L 167.526161 281.536217 
L 169.693598 285.584528 
L 172.807575 291.926756 
L 177.464822 301.373744 
L 179.597965 305.182035 
L 181.319569 307.821023 
L 182.78739 309.682117 
L 184.076878 310.972547 
L 185.222328 311.817457 
L 186.264893 312.319243 
L 187.22515 312.541756 
L 188.144253 312.528759 
L 189.049638 312.291218 
L 189.968742 311.81447 
L 190.92214 311.062382 
L 191.93041 309.975573 
L 193.014129 308.468151 
L 194.180155 306.45009 
L 195.442207 303.802629 
L 196.807144 300.402395 
L 198.288684 296.094465 
L 199.914262 290.658205 
L 201.704456 283.867793 
L 203.714137 275.341269 
L 206.04619 264.436253 
L 208.981833 249.575942 
L 218.351199 201.313429 
L 220.518636 191.771804 
L 222.343125 184.701012 
L 223.92069 179.434416 
L 225.313063 175.524371 
L 226.54082 172.704263 
L 227.631398 170.726169 
L 228.598514 169.407797 
L 229.455887 168.594679 
L 230.224092 168.158289 
L 230.930567 168.006148 
L 231.602747 168.086913 
L 232.288645 168.399214 
L 233.015697 168.98673 
L 233.80448 169.925473 
L 234.668711 171.316594 
L 235.622109 173.292795 
L 236.671533 176.003431 
L 237.823842 179.622261 
L 239.085894 184.346988 
L 240.471408 190.42901 
L 241.994101 198.154372 
L 243.674551 207.876899 
L 245.540194 220.025168 
L 247.652759 235.301427 
L 250.13571 254.953317 
L 253.35943 282.376925 
L 261.89886 355.919188 
L 264.326939 374.402202 
L 266.357197 388.219934 
L 268.113095 398.708889 
L 269.663225 406.685584 
L 271.04188 412.671666 
L 272.269637 417.06353 
L 273.360215 420.185361 
L 274.327331 422.31772 
L 275.170985 423.676443 
L 275.911755 424.476722 
L 276.563358 424.872832 
L 277.15323 424.980447 
L 277.722526 424.85651 
L 278.312398 424.490812 
L 278.957142 423.813831 
L 279.677335 422.71453 
L 280.486694 421.04711 
L 281.39208 418.641813 
L 282.40035 415.296985 
L 283.518363 410.778049 
L 284.75298 404.818483 
L 286.111058 397.123808 
L 287.613174 387.283891 
L 289.279906 374.832463 
L 291.145549 359.148389 
L 293.264973 339.371059 
L 295.77536 313.753061 
L 299.06767 277.689536 
L 307.442484 184.9285 
L 309.959729 160.104502 
L 312.058577 141.517453 
L 313.883066 127.254288 
L 315.501785 116.275431 
L 316.94903 107.917958 
L 318.238518 101.707783 
L 319.390826 97.190419 
L 320.419673 94.007953 
L 321.325058 91.887186 
L 322.113841 90.566809 
L 322.799739 89.822121 
L 323.39647 89.481696 
L 323.931471 89.42075 
L 324.459612 89.587644 
L 325.015189 90.006905 
L 325.632498 90.765648 
L 326.332114 91.997398 
L 327.127755 93.876009 
L 328.026281 96.603773 
L 329.027692 100.391617 
L 330.145706 105.533626 
L 331.387181 112.340899 
L 332.758977 121.153787 
L 334.281671 132.438755 
L 335.982698 146.77806 
L 337.896353 164.873282 
L 340.104944 187.96632 
L 342.779946 218.404668 
L 346.614116 264.863901 
L 352.6363 337.715737 
L 355.373033 367.999707 
L 357.615919 390.447308 
L 359.550151 407.664306 
L 361.264896 421.020814 
L 362.801308 431.314504 
L 364.179963 439.111868 
L 365.414579 444.883354 
L 366.518875 449.043518 
L 367.499709 451.926984 
L 368.36394 453.825429 
L 369.118428 454.98638 
L 369.77689 455.61949 
L 370.353044 455.88223 
L 370.881186 455.884246 
L 371.409327 455.658113 
L 371.978622 455.159536 
L 372.616507 454.288197 
L 373.343559 452.894817 
L 374.166637 450.808014 
L 375.092599 447.823146 
L 376.135164 443.671393 
L 377.294331 438.099271 
L 378.58382 430.76308 
L 380.017346 421.273368 
L 381.622347 409.097547 
L 383.426259 393.642037 
L 385.490812 373.957117 
L 387.946327 348.307193 
L 391.176906 312.039605 
L 399.812361 213.921267 
L 402.350184 188.275102 
L 404.490185 168.811626 
L 406.369546 153.672213 
L 408.043137 141.917071 
L 409.552112 132.826793 
L 410.91019 125.936689 
L 412.137947 120.800168 
L 413.242243 117.088272 
L 414.223077 114.523642 
L 415.094167 112.828478 
L 415.862373 111.789865 
L 416.534553 111.231939 
L 417.131284 111.010395 
L 417.693721 111.036355 
L 418.263016 111.293382 
L 418.873465 111.82509 
L 419.559363 112.73573 
L 420.334428 114.158566 
L 421.205518 116.247856 
L 422.186352 119.207027 
L 423.283789 123.256464 
L 424.511546 128.673664 
L 425.883342 135.774894 
L 427.419754 144.94847 
L 429.155076 156.71176 
L 431.14418 171.783755 
L 433.503669 191.443295 
L 436.569632 218.993245 
L 445.92528 304.338785 
L 448.394513 324.124176 
L 450.50022 339.272204 
L 452.359003 351.096421 
L 454.032594 360.368281 
L 455.548429 367.564201 
L 456.920225 373.047092 
L 458.168559 377.162658 
L 459.293432 380.14648 
L 460.30856 382.245179 
L 461.220805 383.650012 
L 462.037023 384.522356 
L 462.770934 384.99877 
L 463.443114 385.181646 
L 464.094717 385.130176 
L 464.760038 384.848315 
L 465.473372 384.292791 
L 466.255296 383.38855 
L 467.133245 382.014266 
L 468.114079 380.043977 
L 469.211516 377.317457 
L 470.446132 373.625863 
L 471.831646 368.750026 
L 473.395493 362.399637 
L 475.185687 354.162175 
L 477.188509 343.927445 
L 477.188509 343.927445 
" clip-path="url(#p949af13583)" style="fill: none; stroke: #2ca02c; stroke-width: 1.5; stroke-linecap: square"/>
   </g>
   <g id="line2d_34">
    <path d="M 88.414691 271.447462 
L 160.756348 271.336677 
L 162.75917 271.046446 
L 164.473915 270.575005 
L 166.05148 269.91067 
L 167.567315 269.029066 
L 169.062572 267.898843 
L 170.571548 266.474649 
L 172.121677 264.699004 
L 173.733537 262.506792 
L 175.441423 259.797554 
L 177.272771 256.461492 
L 179.268734 252.348834 
L 181.525338 247.169573 
L 184.241494 240.347731 
L 188.686113 228.470938 
L 192.540859 218.429208 
L 194.879771 212.936264 
L 196.76599 209.048242 
L 198.370992 206.227341 
L 199.770223 204.198562 
L 201.00484 202.782819 
L 202.109135 201.841148 
L 203.103687 201.273787 
L 204.022791 200.998995 
L 204.887022 200.968897 
L 205.737536 201.163179 
L 206.594908 201.590786 
L 207.493434 202.29532 
L 208.446833 203.336474 
L 209.46882 204.794797 
L 210.573116 206.774736 
L 211.766579 209.391283 
L 213.056067 212.776739 
L 214.44844 217.079932 
L 215.957415 222.490001 
L 217.60357 229.24944 
L 219.407482 237.631034 
L 221.410304 248.034769 
L 223.680626 261.052835 
L 226.383064 277.909695 
L 230.141785 302.906154 
L 236.362879 344.292274 
L 238.989868 360.179757 
L 241.116152 371.73904 
L 242.940641 380.482546 
L 244.538783 387.101294 
L 245.951733 392.051533 
L 247.206926 395.68093 
L 248.324939 398.268091 
L 249.312632 400.024668 
L 250.183723 401.148012 
L 250.951929 401.799024 
L 251.644686 402.107876 
L 252.282571 402.155515 
L 252.913597 401.976739 
L 253.572059 401.548435 
L 254.285393 400.803743 
L 255.067316 399.650182 
L 255.938407 397.948329 
L 256.905523 395.544244 
L 257.968665 392.279174 
L 259.14155 387.928407 
L 260.431038 382.254535 
L 261.843988 374.995956 
L 263.400976 365.787898 
L 265.12258 354.217367 
L 267.036236 339.789561 
L 269.210532 321.641733 
L 271.782649 298.214476 
L 275.177844 265.085534 
L 283.237145 185.697573 
L 285.795545 163.136364 
L 287.921828 146.279846 
L 289.760035 133.407377 
L 291.385613 123.526683 
L 292.832858 116.034254 
L 294.129205 110.439848 
L 295.281513 106.398399 
L 296.303501 103.574782 
L 297.208886 101.686816 
L 297.997669 100.520836 
L 298.683567 99.874272 
L 299.287157 99.590583 
L 299.842735 99.567014 
L 300.391453 99.76821 
L 300.981325 100.233984 
L 301.632928 101.049393 
L 302.366839 102.345835 
L 303.189917 104.27483 
L 304.115879 107.0415 
L 305.144726 110.848319 
L 306.290175 115.978486 
L 307.559087 122.731116 
L 308.958318 131.433787 
L 310.508448 142.53651 
L 312.230052 156.542683 
L 314.164284 174.177285 
L 316.379734 196.500462 
L 319.047877 225.758838 
L 322.765444 269.223954 
L 329.350065 346.348449 
L 332.073079 375.419097 
L 334.302248 396.93735 
L 336.23648 413.536052 
L 337.944366 426.350931 
L 339.473918 436.213669 
L 340.845714 443.670273 
L 342.073472 449.174387 
L 343.170908 453.126049 
L 344.144883 455.848706 
L 345.002256 457.624632 
L 345.743026 458.685849 
L 346.38777 459.250053 
L 346.957065 459.469092 
L 347.485206 459.437816 
L 348.020207 459.175998 
L 348.60322 458.627278 
L 349.254823 457.689842 
L 349.995593 456.210643 
L 350.832388 454.014823 
L 351.772069 450.893502 
L 352.828351 446.571797 
L 354.001237 440.790157 
L 355.304443 433.195344 
L 356.751688 423.385451 
L 358.356689 410.92229 
L 360.160601 395.10122 
L 362.211435 375.068928 
L 364.618937 349.270268 
L 367.69176 313.784196 
L 377.939075 193.441952 
L 380.353436 168.796026 
L 382.417989 149.909106 
L 384.242478 135.187162 
L 385.868056 123.799682 
L 387.335877 115.023504 
L 388.65966 108.398561 
L 389.846264 103.53747 
L 390.909406 100.068119 
L 391.855945 97.694833 
L 392.685881 96.173582 
L 393.412933 95.272586 
L 394.050818 94.814541 
L 394.620114 94.667925 
L 395.161973 94.757501 
L 395.724409 95.085935 
L 396.341717 95.720987 
L 397.034474 96.773206 
L 397.816398 98.387644 
L 398.701206 100.752232 
L 399.695758 104.077769 
L 400.806913 108.606004 
L 402.048388 114.642584 
L 403.427043 122.495577 
L 404.970314 132.627278 
L 406.698777 145.509015 
L 408.667304 161.916961 
L 410.97878 183.139694 
L 413.873269 211.900375 
L 419.202696 267.621726 
L 423.194622 308.157098 
L 425.903919 333.471012 
L 428.153665 352.488077 
L 430.122192 367.313036 
L 431.884949 378.962729 
L 433.469374 388.011501 
L 434.909759 395.002787 
L 436.212965 400.276874 
L 437.39271 404.169491 
L 438.455852 406.949666 
L 439.402391 408.840663 
L 440.246045 410.061724 
L 440.993674 410.77895 
L 441.665854 411.132627 
L 442.290021 411.215905 
L 442.90047 411.070963 
L 443.538356 410.68276 
L 444.237971 409.982302 
L 445.019895 408.864842 
L 445.897845 407.197998 
L 446.878679 404.834105 
L 447.976115 401.583505 
L 449.203873 397.223188 
L 450.582528 391.469946 
L 452.132657 384.002583 
L 453.888556 374.399758 
L 455.911955 362.041253 
L 458.340033 345.760157 
L 461.577472 322.417566 
L 469.911132 261.661993 
L 472.538121 244.527063 
L 474.767289 231.399227 
L 476.735816 221.08256 
L 477.188509 218.894228 
L 477.188509 218.894228 
" clip-path="url(#p949af13583)" style="fill: none; stroke: #d62728; stroke-width: 1.5; stroke-linecap: square"/>
   </g>
   <g id="patch_3">
    <path d="M 68.976 478.29312 
L 68.976 64.48896 
" style="fill: none; stroke: #000000; stroke-width: 0.8; stroke-linejoin: miter; stroke-linecap: square"/>
   </g>
   <g id="patch_4">
    <path d="M 496.6272 478.29312 
L 496.6272 64.48896 
" style="fill: none; stroke: #000000; stroke-width: 0.8; stroke-linejoin: miter; stroke-linecap: square"/>
   </g>
   <g id="patch_5">
    <path d="M 68.976 478.29312 
L 496.6272 478.29312 
" style="fill: none; stroke: #000000; stroke-width: 0.8; stroke-linejoin: miter; stroke-linecap: square"/>
   </g>
   <g id="patch_6">
    <path d="M 68.976 64.48896 
L 496.6272 64.48896 
" style="fill: none; stroke: #000000; stroke-width: 0.8; stroke-linejoin: miter; stroke-linecap: square"/>
   </g>
   <g id="text_18">
    <!-- Quaternion Error -->
    <g transform="translate(232.721288 58.48896) scale(0.12 -0.12)">
     <defs>
      <path id="DejaVuSans-45" d="M 628 4666 
L 3578 4666 
L 3578 4134 
L 1259 4134 
L 1259 2753 
L 3481 2753 
L 3481 2222 
L 1259 2222 
L 1259 531 
L 3634 531 
L 3634 0 
L 628 0 
L 628 4666 
z
" transform="scale(0.015625)"/>
     </defs>
     <use xlink:href="#DejaVuSans-51"/>
     <use xlink:href="#DejaVuSans-75" transform="translate(78.710938 0)"/>
     <use xlink:href="#DejaVuSans-61" transform="translate(142.089844 0)"/>
     <use xlink:href="#DejaVuSans-74" transform="translate(203.369141 0)"/>
     <use xlink:href="#DejaVuSans-65" transform="translate(242.578125 0)"/>
     <use xlink:href="#DejaVuSans-72" transform="translate(304.101562 0)"/>
     <use xlink:href="#DejaVuSans-6e" transform="translate(343.464844 0)"/>
     <use xlink:href="#DejaVuSans-69" transform="translate(406.84375 0)"/>
     <use xlink:href="#DejaVuSans-6f" transform="translate(434.626953 0)"/>
     <use xlink:href="#DejaVuSans-6e" transform="translate(495.808594 0)"/>
     <use xlink:href="#DejaVuSans-20" transform="translate(559.1875 0)"/>
     <use xlink:href="#DejaVuSans-45" transform="translate(590.974609 0)"/>
     <use xlink:href="#DejaVuSans-72" transform="translate(654.158203 0)"/>
     <use xlink:href="#DejaVuSans-72" transform="translate(693.521484 0)"/>
     <use xlink:href="#DejaVuSans-6f" transform="translate(732.384766 0)"/>
     <use xlink:href="#DejaVuSans-72" transform="translate(793.566406 0)"/>
    </g>
   </g>
   <g id="legend_1">
    <g id="patch_7">
     <path d="M 443.100638 131.20146 
L 489.6272 131.20146 
Q 491.6272 131.20146 491.6272 129.20146 
L 491.6272 71.48896 
Q 491.6272 69.48896 489.6272 69.48896 
L 443.100638 69.48896 
Q 441.100638 69.48896 441.100638 71.48896 
L 441.100638 129.20146 
Q 441.100638 131.20146 443.100638 131.20146 
z
" style="fill: #ffffff; opacity: 0.8; stroke: #cccccc; stroke-linejoin: miter"/>
    </g>
    <g id="line2d_35">
     <path d="M 445.100638 77.587398 
L 455.100638 77.587398 
L 465.100638 77.587398 
" style="fill: none; stroke: #1f77b4; stroke-width: 1.5; stroke-linecap: square"/>
    </g>
    <g id="text_19">
     <!-- qw -->
     <g transform="translate(473.100638 81.087398) scale(0.1 -0.1)">
      <defs>
       <path id="DejaVuSans-71" d="M 947 1747 
Q 947 1113 1208 752 
Q 1469 391 1925 391 
Q 2381 391 2643 752 
Q 2906 1113 2906 1747 
Q 2906 2381 2643 2742 
Q 2381 3103 1925 3103 
Q 1469 3103 1208 2742 
Q 947 2381 947 1747 
z
M 2906 525 
Q 2725 213 2448 61 
Q 2172 -91 1784 -91 
Q 1150 -91 751 415 
Q 353 922 353 1747 
Q 353 2572 751 3078 
Q 1150 3584 1784 3584 
Q 2172 3584 2448 3432 
Q 2725 3281 2906 2969 
L 2906 3500 
L 3481 3500 
L 3481 -1331 
L 2906 -1331 
L 2906 525 
z
" transform="scale(0.015625)"/>
       <path id="DejaVuSans-77" d="M 269 3500 
L 844 3500 
L 1563 769 
L 2278 3500 
L 2956 3500 
L 3675 769 
L 4391 3500 
L 4966 3500 
L 4050 0 
L 3372 0 
L 2619 2869 
L 1863 0 
L 1184 0 
L 269 3500 
z
" transform="scale(0.015625)"/>
      </defs>
      <use xlink:href="#DejaVuSans-71"/>
      <use xlink:href="#DejaVuSans-77" transform="translate(63.476562 0)"/>
     </g>
    </g>
    <g id="line2d_36">
     <path d="M 445.100638 92.265523 
L 455.100638 92.265523 
L 465.100638 92.265523 
" style="fill: none; stroke: #ff7f0e; stroke-width: 1.5; stroke-linecap: square"/>
    </g>
    <g id="text_20">
     <!-- qx -->
     <g transform="translate(473.100638 95.765523) scale(0.1 -0.1)">
      <defs>
       <path id="DejaVuSans-78" d="M 3513 3500 
L 2247 1797 
L 3578 0 
L 2900 0 
L 1881 1375 
L 863 0 
L 184 0 
L 1544 1831 
L 300 3500 
L 978 3500 
L 1906 2253 
L 2834 3500 
L 3513 3500 
z
" transform="scale(0.015625)"/>
      </defs>
      <use xlink:href="#DejaVuSans-71"/>
      <use xlink:href="#DejaVuSans-78" transform="translate(63.476562 0)"/>
     </g>
    </g>
    <g id="line2d_37">
     <path d="M 445.100638 106.943647 
L 455.100638 106.943647 
L 465.100638 106.943647 
" style="fill: none; stroke: #2ca02c; stroke-width: 1.5; stroke-linecap: square"/>
    </g>
    <g id="text_21">
     <!-- qy -->
     <g transform="translate(473.100638 110.443647) scale(0.1 -0.1)">
      <defs>
       <path id="DejaVuSans-79" d="M 2059 -325 
Q 1816 -950 1584 -1140 
Q 1353 -1331 966 -1331 
L 506 -1331 
L 506 -850 
L 844 -850 
Q 1081 -850 1212 -737 
Q 1344 -625 1503 -206 
L 1606 56 
L 191 3500 
L 800 3500 
L 1894 763 
L 2988 3500 
L 3597 3500 
L 2059 -325 
z
" transform="scale(0.015625)"/>
      </defs>
      <use xlink:href="#DejaVuSans-71"/>
      <use xlink:href="#DejaVuSans-79" transform="translate(63.476562 0)"/>
     </g>
    </g>
    <g id="line2d_38">
     <path d="M 445.100638 121.621773 
L 455.100638 121.621773 
L 465.100638 121.621773 
" style="fill: none; stroke: #d62728; stroke-width: 1.5; stroke-linecap: square"/>
    </g>
    <g id="text_22">
     <!-- qz -->
     <g transform="translate(473.100638 125.121773) scale(0.1 -0.1)">
      <defs>
       <path id="DejaVuSans-7a" d="M 353 3500 
L 3084 3500 
L 3084 2975 
L 922 459 
L 3084 459 
L 3084 0 
L 275 0 
L 275 525 
L 2438 3041 
L 353 3041 
L 353 3500 
z
" transform="scale(0.015625)"/>
      </defs>
      <use xlink:href="#DejaVuSans-71"/>
      <use xlink:href="#DejaVuSans-7a" transform="translate(63.476562 0)"/>
     </g>
    </g>
   </g>
  </g>
 </g>
 <defs>
  <clipPath id="p949af13583">
   <rect x="68.976" y="64.48896" width="427.6512" height="413.80416"/>
  </clipPath>
 </defs>
</svg>
